<?xml version="1.0" encoding="UTF-8"?>
<!--Generator: Apple Native CoreSVG 123-->
<!DOCTYPE svg
PUBLIC "-//W3C//DTD SVG 1.1//EN"
       "http://www.w3.org/Graphics/SVG/1.1/DTD/svg11.dtd">
<svg version="1.1" xmlns="http://www.w3.org/2000/svg" xmlns:xlink="http://www.w3.org/1999/xlink" width="3300" height="2200">
 <!--glyph: "uni10028E.medium", point size: 100.000000, font version: "Version 15.0d7e11", template writer version: "5"-->
 <g id="Notes">
  <rect height="2200" id="artboard" style="fill:white;opacity:1" width="3300" x="0" y="0"/>
  <line id="" style="fill:none;stroke:black;opacity:1;stroke-width:0.5;" x1="263" x2="3036" y1="292" y2="292"/>
  <text style="stroke:none;fill:black;font-family:-apple-system,&quot;SF Pro Display&quot;,&quot;SF Pro Text&quot;,Helvetica,sans-serif;font-weight:bold;" transform="matrix(1 0 0 1 263 322)">Weight/Scale Variations</text>
  <text style="stroke:none;fill:black;font-family:-apple-system,&quot;SF Pro Display&quot;,&quot;SF Pro Text&quot;,Helvetica,sans-serif;text-anchor:middle;" transform="matrix(1 0 0 1 559.711 322)">Ultralight</text>
  <text style="stroke:none;fill:black;font-family:-apple-system,&quot;SF Pro Display&quot;,&quot;SF Pro Text&quot;,Helvetica,sans-serif;text-anchor:middle;" transform="matrix(1 0 0 1 856.422 322)">Thin</text>
  <text style="stroke:none;fill:black;font-family:-apple-system,&quot;SF Pro Display&quot;,&quot;SF Pro Text&quot;,Helvetica,sans-serif;text-anchor:middle;" transform="matrix(1 0 0 1 1153.13 322)">Light</text>
  <text style="stroke:none;fill:black;font-family:-apple-system,&quot;SF Pro Display&quot;,&quot;SF Pro Text&quot;,Helvetica,sans-serif;text-anchor:middle;" transform="matrix(1 0 0 1 1449.84 322)">Regular</text>
  <text style="stroke:none;fill:black;font-family:-apple-system,&quot;SF Pro Display&quot;,&quot;SF Pro Text&quot;,Helvetica,sans-serif;text-anchor:middle;" transform="matrix(1 0 0 1 1746.56 322)">Medium</text>
  <text style="stroke:none;fill:black;font-family:-apple-system,&quot;SF Pro Display&quot;,&quot;SF Pro Text&quot;,Helvetica,sans-serif;text-anchor:middle;" transform="matrix(1 0 0 1 2043.27 322)">Semibold</text>
  <text style="stroke:none;fill:black;font-family:-apple-system,&quot;SF Pro Display&quot;,&quot;SF Pro Text&quot;,Helvetica,sans-serif;text-anchor:middle;" transform="matrix(1 0 0 1 2339.98 322)">Bold</text>
  <text style="stroke:none;fill:black;font-family:-apple-system,&quot;SF Pro Display&quot;,&quot;SF Pro Text&quot;,Helvetica,sans-serif;text-anchor:middle;" transform="matrix(1 0 0 1 2636.69 322)">Heavy</text>
  <text style="stroke:none;fill:black;font-family:-apple-system,&quot;SF Pro Display&quot;,&quot;SF Pro Text&quot;,Helvetica,sans-serif;text-anchor:middle;" transform="matrix(1 0 0 1 2933.4 322)">Black</text>
  <line id="" style="fill:none;stroke:black;opacity:1;stroke-width:0.5;" x1="263" x2="3036" y1="1903" y2="1903"/>
  <g id="" transform="matrix(1 0 0 1 263 1933)">
   <path d="M 9.24805 0.830078 C 13.5547 0.830078 17.1387 -2.74414 17.1387 -7.05078 C 17.1387 -11.3574 13.5449 -14.9316 9.23828 -14.9316 C 4.94141 -14.9316 1.36719 -11.3574 1.36719 -7.05078 C 1.36719 -2.74414 4.95117 0.830078 9.24805 0.830078 Z M 9.24805 -0.654297 C 5.70312 -0.654297 2.87109 -3.49609 2.87109 -7.05078 C 2.87109 -10.6055 5.69336 -13.4473 9.23828 -13.4473 C 12.793 -13.4473 15.6348 -10.6055 15.6445 -7.05078 C 15.6543 -3.49609 12.8027 -0.654297 9.24805 -0.654297 Z M 9.22852 -3.42773 C 9.69727 -3.42773 9.9707 -3.74023 9.9707 -4.25781 L 9.9707 -6.31836 L 12.1973 -6.31836 C 12.6953 -6.31836 13.0371 -6.57227 13.0371 -7.04102 C 13.0371 -7.51953 12.7148 -7.7832 12.1973 -7.7832 L 9.9707 -7.7832 L 9.9707 -10.0098 C 9.9707 -10.5273 9.69727 -10.8496 9.22852 -10.8496 C 8.75977 -10.8496 8.50586 -10.5078 8.50586 -10.0098 L 8.50586 -7.7832 L 6.29883 -7.7832 C 5.78125 -7.7832 5.44922 -7.51953 5.44922 -7.04102 C 5.44922 -6.57227 5.80078 -6.31836 6.29883 -6.31836 L 8.50586 -6.31836 L 8.50586 -4.25781 C 8.50586 -3.75977 8.75977 -3.42773 9.22852 -3.42773 Z"/>
  </g>
  <g id="" transform="matrix(1 0 0 1 281.506 1933)">
   <path d="M 11.709 2.91016 C 17.1582 2.91016 21.6699 -1.60156 21.6699 -7.05078 C 21.6699 -12.4902 17.1484 -17.0117 11.6992 -17.0117 C 6.25977 -17.0117 1.74805 -12.4902 1.74805 -7.05078 C 1.74805 -1.60156 6.26953 2.91016 11.709 2.91016 Z M 11.709 1.25 C 7.09961 1.25 3.41797 -2.44141 3.41797 -7.05078 C 3.41797 -11.6504 7.08984 -15.3516 11.6992 -15.3516 C 16.3086 -15.3516 20 -11.6504 20.0098 -7.05078 C 20.0195 -2.44141 16.3184 1.25 11.709 1.25 Z M 11.6895 -2.41211 C 12.207 -2.41211 12.5195 -2.77344 12.5195 -3.33984 L 12.5195 -6.23047 L 15.5762 -6.23047 C 16.123 -6.23047 16.5039 -6.51367 16.5039 -7.03125 C 16.5039 -7.55859 16.1426 -7.86133 15.5762 -7.86133 L 12.5195 -7.86133 L 12.5195 -10.9277 C 12.5195 -11.5039 12.207 -11.8555 11.6895 -11.8555 C 11.1719 -11.8555 10.8789 -11.4844 10.8789 -10.9277 L 10.8789 -7.86133 L 7.83203 -7.86133 C 7.26562 -7.86133 6.89453 -7.55859 6.89453 -7.03125 C 6.89453 -6.51367 7.28516 -6.23047 7.83203 -6.23047 L 10.8789 -6.23047 L 10.8789 -3.33984 C 10.8789 -2.79297 11.1719 -2.41211 11.6895 -2.41211 Z"/>
  </g>
  <g id="" transform="matrix(1 0 0 1 304.924 1933)">
   <path d="M 14.9707 5.67383 C 21.9336 5.67383 27.6953 -0.078125 27.6953 -7.04102 C 27.6953 -14.0039 21.9238 -19.7559 14.9609 -19.7559 C 8.00781 -19.7559 2.25586 -14.0039 2.25586 -7.04102 C 2.25586 -0.078125 8.01758 5.67383 14.9707 5.67383 Z M 14.9707 3.85742 C 8.93555 3.85742 4.08203 -1.00586 4.08203 -7.04102 C 4.08203 -13.0762 8.92578 -17.9395 14.9609 -17.9395 C 21.0059 -17.9395 25.8594 -13.0762 25.8691 -7.04102 C 25.8789 -1.00586 21.0156 3.85742 14.9707 3.85742 Z M 14.9512 -1.06445 C 15.5176 -1.06445 15.8691 -1.45508 15.8691 -2.06055 L 15.8691 -6.13281 L 20.1074 -6.13281 C 20.6934 -6.13281 21.1133 -6.46484 21.1133 -7.02148 C 21.1133 -7.59766 20.7227 -7.93945 20.1074 -7.93945 L 15.8691 -7.93945 L 15.8691 -12.1875 C 15.8691 -12.8027 15.5176 -13.1934 14.9512 -13.1934 C 14.3848 -13.1934 14.0625 -12.7832 14.0625 -12.1875 L 14.0625 -7.93945 L 9.83398 -7.93945 C 9.21875 -7.93945 8.80859 -7.59766 8.80859 -7.02148 C 8.80859 -6.46484 9.23828 -6.13281 9.83398 -6.13281 L 14.0625 -6.13281 L 14.0625 -2.06055 C 14.0625 -1.47461 14.3848 -1.06445 14.9512 -1.06445 Z"/>
  </g>
  <text style="stroke:none;fill:black;font-family:-apple-system,&quot;SF Pro Display&quot;,&quot;SF Pro Text&quot;,Helvetica,sans-serif;font-weight:bold;" transform="matrix(1 0 0 1 263 1953)">Design Variations</text>
  <text style="stroke:none;fill:black;font-family:-apple-system,&quot;SF Pro Display&quot;,&quot;SF Pro Text&quot;,Helvetica,sans-serif;" transform="matrix(1 0 0 1 263 1971)">Symbols are supported in up to nine weights and three scales.</text>
  <text style="stroke:none;fill:black;font-family:-apple-system,&quot;SF Pro Display&quot;,&quot;SF Pro Text&quot;,Helvetica,sans-serif;" transform="matrix(1 0 0 1 263 1989)">For optimal layout with text and other symbols, vertically align</text>
  <text style="stroke:none;fill:black;font-family:-apple-system,&quot;SF Pro Display&quot;,&quot;SF Pro Text&quot;,Helvetica,sans-serif;" transform="matrix(1 0 0 1 263 2007)">symbols with the adjacent text.</text>
  <rect height="14" id="" style="fill:#00AEEF;stroke:none;opacity:0.4;" width="3" x="776" y="1919"/>
  <g id="" transform="matrix(1 0 0 1 779 1933)">
   <path d="M 10.5273 0 L 12.373 0 L 7.17773 -14.0918 L 5.43945 -14.0918 L 0.244141 0 L 2.08984 0 L 3.50586 -4.0332 L 9.11133 -4.0332 Z M 6.2793 -11.9531 L 6.33789 -11.9531 L 8.59375 -5.52734 L 4.02344 -5.52734 Z"/>
  </g>
  <rect height="14" id="" style="fill:#00AEEF;stroke:none;opacity:0.4;" width="3" x="791.617" y="1919"/>
  <text style="stroke:none;fill:black;font-family:-apple-system,&quot;SF Pro Display&quot;,&quot;SF Pro Text&quot;,Helvetica,sans-serif;font-weight:bold;" transform="matrix(1 0 0 1 776 1953)">Margins</text>
  <text style="stroke:none;fill:black;font-family:-apple-system,&quot;SF Pro Display&quot;,&quot;SF Pro Text&quot;,Helvetica,sans-serif;" transform="matrix(1 0 0 1 776 1971)">Leading and trailing margins on the left and right side of each symbol</text>
  <text style="stroke:none;fill:black;font-family:-apple-system,&quot;SF Pro Display&quot;,&quot;SF Pro Text&quot;,Helvetica,sans-serif;" transform="matrix(1 0 0 1 776 1989)">can be adjusted by modifying the width of the blue rectangles.</text>
  <text style="stroke:none;fill:black;font-family:-apple-system,&quot;SF Pro Display&quot;,&quot;SF Pro Text&quot;,Helvetica,sans-serif;" transform="matrix(1 0 0 1 776 2007)">Modifications are automatically applied proportionally to all</text>
  <text style="stroke:none;fill:black;font-family:-apple-system,&quot;SF Pro Display&quot;,&quot;SF Pro Text&quot;,Helvetica,sans-serif;" transform="matrix(1 0 0 1 776 2025)">scales and weights.</text>
  <g id="" transform="matrix(1 0 0 1 1289 1933)">
   <path d="M 2.83203 3.11523 L 4.375 4.6582 C 5.22461 5.48828 6.19141 5.41992 7.06055 4.46289 L 17.2754 -6.66016 C 17.7051 -6.36719 18.0957 -6.37695 18.5645 -6.47461 L 19.6094 -6.68945 L 20.3027 -5.99609 L 20.2539 -5.47852 C 20.1855 -4.95117 20.3516 -4.53125 20.8496 -4.0332 L 21.6602 -3.22266 C 22.168 -2.71484 22.8223 -2.68555 23.3008 -3.16406 L 26.5527 -6.41602 C 27.0312 -6.89453 27.0117 -7.54883 26.5039 -8.05664 L 25.6836 -8.87695 C 25.1855 -9.375 24.7754 -9.55078 24.2383 -9.47266 L 23.7109 -9.41406 L 23.0566 -10.0781 L 23.3398 -11.2207 C 23.4863 -11.7871 23.3398 -12.2559 22.7148 -12.8613 L 20.3027 -15.2539 C 16.7578 -18.7793 12.2266 -18.6719 9.11133 -15.5371 C 8.69141 -15.1074 8.64258 -14.5215 8.91602 -14.0918 C 9.15039 -13.7207 9.62891 -13.4961 10.2734 -13.6621 C 11.7871 -14.043 13.3008 -13.9258 14.7852 -12.9199 L 14.1602 -11.3379 C 13.9258 -10.752 13.9453 -10.2734 14.1797 -9.83398 L 3.01758 0.439453 C 2.08008 1.30859 1.97266 2.25586 2.83203 3.11523 Z M 10.6738 -15.1465 C 13.3398 -17.1387 16.6504 -16.8262 19.0527 -14.4141 L 21.6797 -11.8066 C 21.9141 -11.5723 21.9434 -11.3867 21.8848 -11.0938 L 21.5039 -9.53125 L 23.0762 -7.95898 L 24.043 -8.04688 C 24.3262 -8.07617 24.4141 -8.05664 24.6387 -7.83203 L 25.2637 -7.20703 L 22.5098 -4.46289 L 21.8848 -5.07812 C 21.6602 -5.30273 21.6406 -5.40039 21.6699 -5.68359 L 21.7578 -6.64062 L 20.1953 -8.20312 L 18.5742 -7.89062 C 18.291 -7.83203 18.1445 -7.83203 17.9102 -8.07617 L 15.7324 -10.2539 C 15.5078 -10.4883 15.4785 -10.625 15.6055 -10.9473 L 16.5527 -13.2227 C 14.9512 -14.7559 12.8418 -15.6055 10.8008 -14.9512 C 10.7129 -14.9219 10.6445 -14.9414 10.6152 -14.9805 C 10.5859 -15.0293 10.5859 -15.0781 10.6738 -15.1465 Z M 4.10156 2.41211 C 3.61328 1.91406 3.78906 1.61133 4.12109 1.30859 L 15.0781 -8.80859 L 16.3086 -7.57812 L 6.15234 3.34961 C 5.84961 3.68164 5.46875 3.7793 5.06836 3.37891 Z"/>
  </g>
  <text style="stroke:none;fill:black;font-family:-apple-system,&quot;SF Pro Display&quot;,&quot;SF Pro Text&quot;,Helvetica,sans-serif;font-weight:bold;" transform="matrix(1 0 0 1 1289 1953)">Exporting</text>
  <text style="stroke:none;fill:black;font-family:-apple-system,&quot;SF Pro Display&quot;,&quot;SF Pro Text&quot;,Helvetica,sans-serif;" transform="matrix(1 0 0 1 1289 1971)">Symbols should be outlined when exporting to ensure the</text>
  <text style="stroke:none;fill:black;font-family:-apple-system,&quot;SF Pro Display&quot;,&quot;SF Pro Text&quot;,Helvetica,sans-serif;" transform="matrix(1 0 0 1 1289 1989)">design is preserved when submitting to Xcode.</text>
  <text id="template-version" style="stroke:none;fill:black;font-family:-apple-system,&quot;SF Pro Display&quot;,&quot;SF Pro Text&quot;,Helvetica,sans-serif;text-anchor:end;" transform="matrix(1 0 0 1 3036 1933)">Template v.1.0</text>
  <text style="stroke:none;fill:black;font-family:-apple-system,&quot;SF Pro Display&quot;,&quot;SF Pro Text&quot;,Helvetica,sans-serif;text-anchor:end;" transform="matrix(1 0 0 1 3036 1951)">Generated from backward.end.fill</text>
  <text style="stroke:none;fill:black;font-family:-apple-system,&quot;SF Pro Display&quot;,&quot;SF Pro Text&quot;,Helvetica,sans-serif;text-anchor:end;" transform="matrix(1 0 0 1 3036 1969)">Typeset at 100 points</text>
  <text style="stroke:none;fill:black;font-family:-apple-system,&quot;SF Pro Display&quot;,&quot;SF Pro Text&quot;,Helvetica,sans-serif;" transform="matrix(1 0 0 1 263 726)">Small</text>
  <text style="stroke:none;fill:black;font-family:-apple-system,&quot;SF Pro Display&quot;,&quot;SF Pro Text&quot;,Helvetica,sans-serif;" transform="matrix(1 0 0 1 263 1156)">Medium</text>
  <text style="stroke:none;fill:black;font-family:-apple-system,&quot;SF Pro Display&quot;,&quot;SF Pro Text&quot;,Helvetica,sans-serif;" transform="matrix(1 0 0 1 263 1586)">Large</text>
 </g>
 <g id="Guides">
  <g id="H-reference" style="fill:#27AAE1;stroke:none;" transform="matrix(1 0 0 1 339 696)">
   <path d="M 54.9316 0 L 57.666 0 L 30.5664 -70.459 L 28.0762 -70.459 L 0.976562 0 L 3.66211 0 L 12.9395 -24.4629 L 45.7031 -24.4629 Z M 29.1992 -67.0898 L 29.4434 -67.0898 L 44.8242 -26.709 L 13.8184 -26.709 Z"/>
  </g>
  <line id="Baseline-S" style="fill:none;stroke:#27AAE1;opacity:1;stroke-width:0.577;" x1="263" x2="3036" y1="696" y2="696"/>
  <line id="Capline-S" style="fill:none;stroke:#27AAE1;opacity:1;stroke-width:0.577;" x1="263" x2="3036" y1="625.541" y2="625.541"/>
  <g id="H-reference" style="fill:#27AAE1;stroke:none;" transform="matrix(1 0 0 1 339 1126)">
   <path d="M 54.9316 0 L 57.666 0 L 30.5664 -70.459 L 28.0762 -70.459 L 0.976562 0 L 3.66211 0 L 12.9395 -24.4629 L 45.7031 -24.4629 Z M 29.1992 -67.0898 L 29.4434 -67.0898 L 44.8242 -26.709 L 13.8184 -26.709 Z"/>
  </g>
  <line id="Baseline-M" style="fill:none;stroke:#27AAE1;opacity:1;stroke-width:0.577;" x1="263" x2="3036" y1="1126" y2="1126"/>
  <line id="Capline-M" style="fill:none;stroke:#27AAE1;opacity:1;stroke-width:0.577;" x1="263" x2="3036" y1="1055.54" y2="1055.54"/>
  <g id="H-reference" style="fill:#27AAE1;stroke:none;" transform="matrix(1 0 0 1 339 1556)">
   <path d="M 54.9316 0 L 57.666 0 L 30.5664 -70.459 L 28.0762 -70.459 L 0.976562 0 L 3.66211 0 L 12.9395 -24.4629 L 45.7031 -24.4629 Z M 29.1992 -67.0898 L 29.4434 -67.0898 L 44.8242 -26.709 L 13.8184 -26.709 Z"/>
  </g>
  <line id="Baseline-L" style="fill:none;stroke:#27AAE1;opacity:1;stroke-width:0.577;" x1="263" x2="3036" y1="1556" y2="1556"/>
  <line id="Capline-L" style="fill:none;stroke:#27AAE1;opacity:1;stroke-width:0.577;" x1="263" x2="3036" y1="1485.54" y2="1485.54"/>
  <rect height="119.336" id="left-margin" style="fill:#00AEEF;stroke:none;opacity:0.4;" width="12.4512" x="1391.79" y="1030.79"/>
  <rect height="119.336" id="right-margin" style="fill:#00AEEF;stroke:none;opacity:0.4;" width="12.4512" x="1495.45" y="1030.79"/>
 </g>
 <g id="Symbols">
  <g id="Black-L" transform="matrix(1 0 0 1 2848.61 1556)">
   <path d="M 27.3438 20.752 L 43.6035 20.752 C 51.0742 20.752 54.8828 16.9434 54.8828 9.47266 L 54.8828 -32.373 C 54.6875 -33.3008 54.541 -34.2773 54.541 -35.3516 C 54.541 -36.377 54.6875 -37.3535 54.8828 -38.2812 L 54.8828 -79.9316 C 54.8828 -87.2559 51.0742 -90.9668 43.6035 -91.2109 L 27.3438 -91.2109 C 19.873 -91.2109 16.0645 -87.4023 16.0645 -79.9316 L 16.0645 9.47266 C 15.918 16.9434 19.6777 20.752 27.3438 20.752 Z M 139.746 19.4824 C 147.217 19.4824 153.516 13.8672 153.516 4.15039 L 153.516 -74.5605 C 153.516 -84.375 147.314 -89.8926 139.893 -89.8926 C 136.377 -89.8926 133.203 -89.0625 129.834 -87.1582 L 64.3066 -48.877 C 59.4238 -46.0449 55.9082 -42.8711 54.8828 -38.2812 L 54.8828 -32.373 C 55.957 -27.7344 59.5215 -24.3164 64.3066 -21.5332 L 129.834 16.748 C 133.154 18.6523 136.328 19.4824 139.746 19.4824 Z"/>
  </g>
  <g id="Heavy-L" transform="matrix(1 0 0 1 2554.58 1556)">
   <path d="M 26.5137 19.4824 L 42.2852 19.4824 C 49.2188 19.4824 52.7344 15.9668 52.7344 9.0332 L 52.7344 -32.5195 C 52.5391 -33.3984 52.3926 -34.3262 52.3926 -35.3027 C 52.3926 -36.3281 52.5391 -37.2559 52.7344 -38.1348 L 52.7344 -79.4922 C 52.7344 -86.3281 49.2188 -89.7461 42.2852 -89.9414 L 26.5137 -89.9414 C 19.5801 -89.9414 16.0645 -86.4258 16.0645 -79.4922 L 16.0645 9.0332 C 15.918 15.9668 19.4336 19.4824 26.5137 19.4824 Z M 135.693 18.0176 C 142.432 18.0176 148.145 12.9395 148.145 3.95508 L 148.145 -74.4141 C 148.145 -83.4473 142.529 -88.4766 135.742 -88.4766 C 132.52 -88.4766 129.59 -87.6465 126.514 -85.8887 L 61.1816 -47.7051 C 56.7383 -45.0684 53.7109 -42.1387 52.7344 -38.1348 L 52.7344 -32.5195 C 53.7109 -28.418 56.8359 -25.3418 61.1816 -22.7539 L 126.514 15.4297 C 129.541 17.1875 132.471 18.0176 135.693 18.0176 Z"/>
  </g>
  <g id="Bold-L" transform="matrix(1 0 0 1 2260.85 1556)">
   <path d="M 25.5859 18.0176 L 40.7715 18.0176 C 47.1191 18.0176 50.293 14.8438 50.293 8.49609 L 50.293 -32.666 C 50.0977 -33.4961 50 -34.375 50 -35.3027 C 50 -36.2793 50.0977 -37.1582 50.293 -37.9883 L 50.293 -78.9551 C 50.293 -85.3516 47.1191 -88.3789 40.7715 -88.5254 L 25.5859 -88.5254 C 19.2871 -88.5254 16.0645 -85.3027 16.0645 -78.9551 L 16.0645 8.49609 C 15.9668 14.8438 19.1895 18.0176 25.5859 18.0176 Z M 131.104 16.4062 C 137.109 16.4062 142.188 11.9141 142.188 3.71094 L 142.188 -74.2188 C 142.188 -82.4219 137.158 -86.9141 131.152 -86.9141 C 128.223 -86.9141 125.586 -86.084 122.754 -84.4727 L 57.7148 -46.3379 C 53.7598 -43.9941 51.1719 -41.4062 50.293 -37.9883 L 50.293 -32.666 C 51.1719 -29.1992 53.8086 -26.4648 57.7148 -24.1699 L 122.754 13.9648 C 125.537 15.5762 128.174 16.4062 131.104 16.4062 Z"/>
  </g>
  <g id="Semibold-L" transform="matrix(1 0 0 1 1966.19 1556)">
   <path d="M 24.9512 17.041 L 39.7461 17.041 C 45.6543 17.041 48.6328 14.0625 48.6328 8.1543 L 48.6328 -32.7637 C 48.4375 -33.5938 48.3398 -34.4238 48.3398 -35.3027 C 48.3398 -36.2305 48.4375 -37.0605 48.6328 -37.8418 L 48.6328 -78.6133 C 48.6328 -84.6191 45.6543 -87.4512 39.7461 -87.5488 L 24.9512 -87.5488 C 19.043 -87.5488 16.0645 -84.5703 16.0645 -78.6133 L 16.0645 8.1543 C 16.0156 14.0625 18.9941 17.041 24.9512 17.041 Z M 127.93 15.2832 C 133.398 15.2832 138.086 11.1816 138.086 3.56445 L 138.086 -74.0723 C 138.086 -81.7383 133.447 -85.8398 127.979 -85.8398 C 125.244 -85.8398 122.852 -85.0098 120.166 -83.4473 L 55.3223 -45.4102 C 51.709 -43.2617 49.4629 -40.8691 48.6328 -37.8418 L 48.6328 -32.7637 C 49.4629 -29.6875 51.7578 -27.1973 55.3223 -25.1465 L 120.166 12.9395 C 122.803 14.4531 125.195 15.2832 127.93 15.2832 Z"/>
  </g>
  <g id="Medium-L" transform="matrix(1 0 0 1 1671.04 1556)">
   <path d="M 24.5117 16.3086 L 38.9648 16.3086 C 44.5801 16.3086 47.4121 13.4766 47.4121 7.86133 L 47.4121 -32.8613 C 47.168 -33.6426 47.0703 -34.4238 47.0703 -35.3027 C 47.0703 -36.1816 47.168 -37.0117 47.4121 -37.793 L 47.4121 -78.3691 C 47.4121 -84.1309 44.5801 -86.7676 38.9648 -86.7676 L 24.5117 -86.7676 C 18.8965 -86.7676 16.0645 -83.9844 16.0645 -78.3691 L 16.0645 7.86133 C 16.0156 13.4766 18.8477 16.3086 24.5117 16.3086 Z M 125.537 14.4531 C 130.615 14.4531 134.961 10.6445 134.961 3.4668 L 134.961 -73.9746 C 134.961 -81.2012 130.615 -85.0098 125.586 -85.0098 C 122.998 -85.0098 120.752 -84.1797 118.213 -82.7148 L 53.4668 -44.6777 C 50.1465 -42.7246 48.1445 -40.4785 47.4121 -37.793 L 47.4121 -32.8613 C 48.1445 -30.0781 50.1953 -27.7832 53.4668 -25.8789 L 118.213 12.1582 C 120.703 13.623 122.949 14.4531 125.537 14.4531 Z"/>
  </g>
  <g id="Regular-L" transform="matrix(1 0 0 1 1376.38 1556)">
   <path d="M 23.877 15.332 L 37.9395 15.332 C 43.1641 15.332 45.752 12.7441 45.752 7.51953 L 45.752 -32.959 C 45.5566 -33.6914 45.4102 -34.4727 45.4102 -35.3027 C 45.4102 -36.1328 45.5566 -36.9141 45.752 -37.6465 L 45.752 -78.0273 C 45.752 -83.3984 43.1641 -85.8398 37.9395 -85.8398 L 23.877 -85.8398 C 18.6523 -85.8398 16.0645 -83.2031 16.0645 -78.0273 L 16.0645 7.51953 C 16.0645 12.7441 18.6523 15.332 23.877 15.332 Z M 122.412 13.3789 C 126.953 13.3789 130.859 9.91211 130.859 3.27148 L 130.859 -73.877 C 130.859 -80.5176 126.953 -83.9355 122.412 -83.9355 C 120.068 -83.9355 118.018 -83.1055 115.674 -81.7383 L 51.123 -43.75 C 48.1445 -41.9922 46.4355 -39.9902 45.752 -37.6465 L 45.752 -32.959 C 46.4355 -30.6152 48.1445 -28.5645 51.123 -26.8066 L 115.674 11.1816 C 117.969 12.5488 120.068 13.3789 122.412 13.3789 Z"/>
  </g>
  <g id="Light-L" transform="matrix(1 0 0 1 1081.65 1556)">
   <path d="M 23.0469 14.3066 L 36.8164 14.3066 C 41.5527 14.3066 43.7988 12.1094 43.7988 7.32422 L 43.7988 -33.1055 C 43.5547 -33.7891 43.457 -34.5215 43.457 -35.3027 C 43.457 -36.084 43.5547 -36.8652 43.7988 -37.5488 L 43.7988 -77.832 C 43.7988 -82.7148 41.5527 -84.8145 36.8164 -84.8145 L 23.0469 -84.8145 C 18.3105 -84.8145 16.0645 -82.6172 16.0645 -77.832 L 16.0645 7.32422 C 16.0645 12.1094 18.3105 14.3066 23.0469 14.3066 Z M 119.336 12.207 C 123.34 12.207 126.904 9.17969 126.904 3.125 L 126.904 -73.7305 C 126.904 -79.7852 123.34 -82.7637 119.336 -82.7637 C 117.236 -82.7637 115.234 -81.9336 113.232 -80.8105 L 48.2422 -42.5293 C 45.8496 -41.1133 44.3848 -39.502 43.7988 -37.5488 L 43.7988 -33.1055 C 44.3848 -31.1035 45.8984 -29.4434 48.2422 -28.0273 L 113.232 10.2051 C 115.186 11.3281 117.236 12.207 119.336 12.207 Z"/>
  </g>
  <g id="Thin-L" transform="matrix(1 0 0 1 787.55 1556)">
   <path d="M 21.9727 12.9883 L 35.3027 12.9883 C 39.4531 12.9883 41.2109 11.2793 41.2109 7.08008 L 41.2109 -33.3496 C 40.9668 -33.9355 40.8691 -34.6191 40.8691 -35.3516 C 40.8691 -36.084 40.9668 -36.7676 41.2109 -37.3535 L 41.2109 -77.6367 C 41.2109 -81.8359 39.4531 -83.5449 35.3027 -83.5449 L 21.9727 -83.5449 C 17.8223 -83.5449 16.0645 -81.7871 16.0645 -77.6367 L 16.0645 7.08008 C 16.0645 11.2793 17.8223 12.9883 21.9727 12.9883 Z M 115.234 10.6445 C 118.506 10.6445 121.68 8.25195 121.68 2.92969 L 121.68 -73.5352 C 121.68 -78.8574 118.506 -81.25 115.234 -81.25 C 113.477 -81.25 111.621 -80.3711 110.059 -79.4922 L 44.4336 -40.918 C 42.8223 -39.9902 41.6992 -38.8184 41.2109 -37.3535 L 41.2109 -33.3496 C 41.6992 -31.7871 42.8711 -30.6152 44.4336 -29.6875 L 110.059 8.88672 C 111.523 9.76562 113.477 10.6445 115.234 10.6445 Z"/>
  </g>
  <g id="Ultralight-L" transform="matrix(1 0 0 1 492.182 1556)">
   <path d="M 21.4355 12.3535 L 34.5215 12.3535 C 38.3789 12.3535 39.8926 10.8398 39.8926 6.98242 L 39.8926 -33.4473 C 39.6484 -34.0332 39.5508 -34.668 39.5508 -35.3516 C 39.5508 -36.084 39.6484 -36.7188 39.8926 -37.2559 L 39.8926 -77.5391 C 39.8926 -81.3477 38.3789 -82.8613 34.5215 -82.8613 L 21.4355 -82.8613 C 17.5293 -82.8613 16.0645 -81.3965 16.0645 -77.5391 L 16.0645 6.98242 C 16.0645 10.8398 17.5293 12.3535 21.4355 12.3535 Z M 113.184 9.86328 C 116.064 9.86328 118.994 7.76367 118.994 2.7832 L 118.994 -73.4375 C 118.994 -78.3691 116.064 -80.4688 113.184 -80.4688 C 111.572 -80.4688 109.717 -79.5898 108.398 -78.8574 L 42.4805 -40.0879 C 41.2598 -39.3555 40.332 -38.4766 39.8926 -37.2559 L 39.8926 -33.4473 C 40.332 -32.1777 41.3086 -31.2012 42.4805 -30.5176 L 108.398 8.25195 C 109.668 8.98438 111.572 9.86328 113.184 9.86328 Z"/>
  </g>
  <g id="Black-M" transform="matrix(1 0 0 1 2865.14 1126)">
   <path d="M 21.875 9.32617 L 35.0098 9.32617 C 41.2598 9.32617 44.3848 6.20117 44.3848 -0.0488281 L 44.3848 -32.9102 C 44.2383 -33.6914 44.1406 -34.4727 44.1406 -35.3027 C 44.1406 -36.1816 44.2383 -37.0117 44.3848 -37.7441 L 44.3848 -70.4102 C 44.3848 -76.416 41.2598 -79.541 35.0098 -79.7852 L 21.875 -79.7852 C 15.5762 -79.7852 12.4512 -76.6602 12.4512 -70.4102 L 12.4512 -0.0488281 C 12.2559 6.20117 15.3809 9.32617 21.875 9.32617 Z M 112.207 8.49609 C 118.604 8.49609 124.072 3.71094 124.072 -4.54102 L 124.072 -65.8691 C 124.072 -74.1699 118.701 -78.8574 112.305 -78.8574 C 109.375 -78.8574 106.592 -78.2227 103.857 -76.6602 L 52.4902 -46.8262 C 48.4375 -44.4336 45.2637 -41.8457 44.3848 -37.7441 L 44.3848 -32.9102 C 45.3125 -28.7109 48.584 -25.8789 52.4902 -23.584 L 103.857 6.29883 C 106.543 7.86133 109.277 8.49609 112.207 8.49609 Z"/>
  </g>
  <g id="Heavy-M" transform="matrix(1 0 0 1 2570.84 1126)">
   <path d="M 21.1914 8.20312 L 33.8379 8.20312 C 39.6484 8.20312 42.5293 5.27344 42.5293 -0.537109 L 42.5293 -33.0566 C 42.3828 -33.7402 42.2852 -34.5215 42.2852 -35.3027 C 42.2852 -36.1328 42.3828 -36.9141 42.5293 -37.5977 L 42.5293 -69.9219 C 42.5293 -75.5859 39.6484 -78.4668 33.8379 -78.6621 L 21.1914 -78.6621 C 15.3809 -78.6621 12.4512 -75.7324 12.4512 -69.9219 L 12.4512 -0.537109 C 12.3047 5.27344 15.2344 8.20312 21.1914 8.20312 Z M 108.496 7.22656 C 114.307 7.22656 119.238 2.88086 119.238 -4.6875 L 119.238 -65.7227 C 119.238 -73.3398 114.404 -77.6367 108.594 -77.6367 C 105.908 -77.6367 103.369 -77.002 100.83 -75.5371 L 49.8535 -45.8008 C 46.0938 -43.6035 43.3594 -41.2109 42.5293 -37.5977 L 42.5293 -33.0566 C 43.3594 -29.3457 46.1914 -26.7578 49.8535 -24.6094 L 100.83 5.12695 C 103.32 6.5918 105.859 7.22656 108.496 7.22656 Z"/>
  </g>
  <g id="Bold-M" transform="matrix(1 0 0 1 2276.82 1126)">
   <path d="M 20.4102 6.93359 L 32.5195 6.93359 C 37.793 6.93359 40.4785 4.24805 40.4785 -1.02539 L 40.4785 -33.1543 C 40.332 -33.8379 40.2344 -34.5215 40.2344 -35.3027 C 40.2344 -36.084 40.332 -36.7676 40.4785 -37.4512 L 40.4785 -69.4336 C 40.4785 -74.707 37.793 -77.2461 32.5195 -77.3926 L 20.4102 -77.3926 C 15.1367 -77.3926 12.4512 -74.707 12.4512 -69.4336 L 12.4512 -1.02539 C 12.3535 4.24805 15.0391 6.93359 20.4102 6.93359 Z M 104.395 5.76172 C 109.521 5.76172 113.867 1.95312 113.867 -4.88281 L 113.867 -65.5762 C 113.867 -72.4121 109.57 -76.2695 104.492 -76.2695 C 102.002 -76.2695 99.8047 -75.6348 97.4121 -74.2676 L 46.875 -44.6777 C 43.5059 -42.6758 41.2109 -40.4785 40.4785 -37.4512 L 40.4785 -33.1543 C 41.2109 -30.0781 43.5547 -27.7344 46.875 -25.7812 L 97.4121 3.80859 C 99.7559 5.17578 101.953 5.76172 104.395 5.76172 Z"/>
  </g>
  <g id="Semibold-M" transform="matrix(1 0 0 1 1981.96 1126)">
   <path d="M 19.873 6.05469 L 31.6406 6.05469 C 36.5723 6.05469 39.0625 3.51562 39.0625 -1.36719 L 39.0625 -33.252 C 38.916 -33.8867 38.8184 -34.5703 38.8184 -35.3027 C 38.8184 -36.0352 38.916 -36.7188 39.0625 -37.3535 L 39.0625 -69.0918 C 39.0625 -74.0723 36.5723 -76.416 31.6406 -76.5137 L 19.873 -76.5137 C 14.9414 -76.5137 12.4512 -74.0234 12.4512 -69.0918 L 12.4512 -1.36719 C 12.4023 3.51562 14.8926 6.05469 19.873 6.05469 Z M 101.562 4.78516 C 106.25 4.78516 110.156 1.31836 110.156 -5.0293 L 110.156 -65.4297 C 110.156 -71.8262 106.25 -75.293 101.611 -75.293 C 99.3164 -75.293 97.3145 -74.6582 95.1172 -73.3887 L 44.8242 -43.8965 C 41.6992 -42.041 39.7461 -39.9902 39.0625 -37.3535 L 39.0625 -33.252 C 39.7461 -30.5664 41.748 -28.418 44.8242 -26.6113 L 95.1172 2.88086 C 97.3145 4.15039 99.3164 4.78516 101.562 4.78516 Z"/>
  </g>
  <g id="Medium-M" transform="matrix(1 0 0 1 1686.67 1126)">
   <path d="M 19.4824 5.37109 L 30.957 5.37109 C 35.5957 5.37109 37.9883 2.97852 37.9883 -1.66016 L 37.9883 -33.3008 C 37.793 -33.9355 37.7441 -34.5703 37.7441 -35.3027 C 37.7441 -35.9863 37.793 -36.6699 37.9883 -37.2559 L 37.9883 -68.8477 C 37.9883 -73.584 35.5957 -75.8301 30.957 -75.8789 L 19.4824 -75.8789 C 14.8438 -75.8789 12.4512 -73.4863 12.4512 -68.8477 L 12.4512 -1.66016 C 12.4023 2.97852 14.7949 5.37109 19.4824 5.37109 Z M 99.4141 4.05273 C 103.711 4.05273 107.324 0.830078 107.324 -5.12695 L 107.324 -65.3809 C 107.324 -71.3379 103.76 -74.5605 99.4629 -74.5605 C 97.3145 -74.5605 95.459 -73.9258 93.3105 -72.7051 L 43.2617 -43.3105 C 40.3809 -41.5527 38.5742 -39.6484 37.9883 -37.2559 L 37.9883 -33.3008 C 38.623 -30.9082 40.3809 -28.9062 43.2617 -27.1973 L 93.3105 2.19727 C 95.459 3.41797 97.2656 4.05273 99.4141 4.05273 Z"/>
  </g>
  <g id="Regular-M" transform="matrix(1 0 0 1 1391.79 1126)">
   <path d="M 18.9453 4.54102 L 30.0781 4.54102 C 34.3262 4.54102 36.5723 2.29492 36.5723 -2.00195 L 36.5723 -33.3984 C 36.4258 -33.9844 36.3281 -34.6191 36.3281 -35.2539 C 36.3281 -35.9375 36.4258 -36.5723 36.5723 -37.1582 L 36.5723 -68.5059 C 36.5723 -72.9492 34.3262 -75 30.0781 -75 L 18.9453 -75 C 14.6973 -75 12.4512 -72.7539 12.4512 -68.5059 L 12.4512 -2.00195 C 12.4512 2.29492 14.6973 4.54102 18.9453 4.54102 Z M 96.6309 3.07617 C 100.488 3.07617 103.662 0.195312 103.662 -5.27344 L 103.662 -65.2344 C 103.662 -70.7031 100.488 -73.6328 96.6309 -73.6328 C 94.6289 -73.6328 93.0176 -72.998 91.0156 -71.8262 L 41.2598 -42.5293 C 38.623 -40.9668 37.1094 -39.1602 36.5723 -37.1582 L 36.5723 -33.3984 C 37.1094 -31.3477 38.623 -29.5898 41.2598 -27.9785 L 91.0156 1.26953 C 93.0176 2.44141 94.6289 3.07617 96.6309 3.07617 Z"/>
  </g>
  <g id="Light-M" transform="matrix(1 0 0 1 1096.86 1126)">
   <path d="M 18.2129 3.61328 L 29.0527 3.61328 C 32.9102 3.61328 34.8145 1.75781 34.8145 -2.14844 L 34.8145 -33.4961 C 34.668 -34.082 34.5703 -34.668 34.5703 -35.3027 C 34.5703 -35.9375 34.668 -36.5234 34.8145 -37.0605 L 34.8145 -68.3105 C 34.8145 -72.3633 32.9102 -74.1211 29.0527 -74.1211 L 18.2129 -74.1211 C 14.3555 -74.1211 12.4512 -72.2168 12.4512 -68.3105 L 12.4512 -2.14844 C 12.4512 1.75781 14.3555 3.61328 18.2129 3.61328 Z M 93.8477 2.05078 C 97.2168 2.05078 100.098 -0.488281 100.098 -5.41992 L 100.098 -65.1367 C 100.098 -70.0684 97.2168 -72.6074 93.8477 -72.6074 C 92.0898 -72.6074 90.5273 -71.9238 88.8672 -70.9473 L 38.6719 -41.4551 C 36.5723 -40.1855 35.3027 -38.7695 34.8145 -37.0605 L 34.8145 -33.4961 C 35.3027 -31.7871 36.5723 -30.3711 38.6719 -29.1016 L 88.8672 0.390625 C 90.5273 1.41602 92.0898 2.05078 93.8477 2.05078 Z"/>
  </g>
  <g id="Thin-M" transform="matrix(1 0 0 1 802.492 1126)">
   <path d="M 17.2852 2.44141 L 27.6855 2.44141 C 31.0547 2.44141 32.4707 0.976562 32.4707 -2.39258 L 32.4707 -33.6914 C 32.3242 -34.1797 32.2266 -34.7168 32.2266 -35.3027 C 32.2266 -35.8887 32.3242 -36.4258 32.4707 -36.9141 L 32.4707 -68.1152 C 32.4707 -71.5332 31.0547 -72.9492 27.6855 -72.9492 L 17.2852 -72.9492 C 13.916 -72.9492 12.4512 -71.4844 12.4512 -68.1152 L 12.4512 -2.39258 C 12.4512 0.976562 13.916 2.44141 17.2852 2.44141 Z M 90.1855 0.683594 C 92.8711 0.683594 95.4102 -1.31836 95.4102 -5.61523 L 95.4102 -64.9414 C 95.4102 -69.2383 92.8711 -71.2402 90.1855 -71.2402 C 88.7695 -71.2402 87.3047 -70.5566 85.9863 -69.8242 L 35.2539 -39.9902 C 33.8379 -39.1602 32.9102 -38.1836 32.4707 -36.9141 L 32.4707 -33.6914 C 32.9102 -32.4219 33.8867 -31.3965 35.2539 -30.5664 L 85.9863 -0.732422 C 87.207 0 88.7695 0.683594 90.1855 0.683594 Z"/>
  </g>
  <g id="Ultralight-M" transform="matrix(1 0 0 1 506.977 1126)">
   <path d="M 16.7969 1.85547 L 27.002 1.85547 C 30.0781 1.85547 31.2988 0.585938 31.2988 -2.49023 L 31.2988 -33.8379 C 31.1523 -34.2773 31.0547 -34.7656 31.0547 -35.3027 C 31.0547 -35.8887 31.1523 -36.377 31.2988 -36.8164 L 31.2988 -68.0176 C 31.2988 -71.1426 30.0781 -72.3633 27.002 -72.3633 L 16.7969 -72.3633 C 13.6719 -72.3633 12.4512 -71.1426 12.4512 -68.0176 L 12.4512 -2.49023 C 12.4512 0.585938 13.6719 1.85547 16.7969 1.85547 Z M 88.3301 -0.0488281 C 90.6738 -0.0488281 93.0176 -1.75781 93.0176 -5.71289 L 93.0176 -64.8438 C 93.0176 -68.7988 90.6738 -70.5566 88.3301 -70.5566 C 87.0605 -70.5566 85.5957 -69.873 84.5215 -69.2383 L 33.4961 -39.2578 C 32.4219 -38.623 31.6895 -37.8418 31.2988 -36.8164 L 31.2988 -33.8379 C 31.6895 -32.7637 32.4707 -31.9336 33.4961 -31.3477 L 84.5215 -1.31836 C 85.5469 -0.732422 87.0605 -0.0488281 88.3301 -0.0488281 Z"/>
  </g>
  <g id="Black-S" transform="matrix(1 0 0 1 2880.08 696)">
   <path d="M 17.0898 -0.390625 L 27.3438 -0.390625 C 32.2266 -0.390625 34.668 -2.83203 34.668 -7.71484 L 34.668 -33.4473 C 34.5703 -34.0332 34.4727 -34.668 34.4727 -35.3027 C 34.4727 -35.9863 34.5703 -36.6211 34.668 -37.207 L 34.668 -62.7441 C 34.668 -67.4316 32.2266 -69.873 27.3438 -70.0684 L 17.0898 -70.0684 C 12.207 -70.0684 9.76562 -67.627 9.76562 -62.7441 L 9.76562 -7.71484 C 9.61914 -2.83203 12.0605 -0.390625 17.0898 -0.390625 Z M 87.6465 -1.07422 C 92.627 -1.07422 96.875 -4.78516 96.875 -11.1816 L 96.875 -59.2285 C 96.875 -65.6738 92.7246 -69.3359 87.7441 -69.3359 C 85.4492 -69.3359 83.3008 -68.8477 81.1523 -67.627 L 40.9668 -44.2383 C 37.793 -42.3828 35.3516 -40.3809 34.668 -37.207 L 34.668 -33.4473 C 35.4004 -30.1758 37.8906 -27.9297 40.9668 -26.1719 L 81.1523 -2.7832 C 83.252 -1.5625 85.4004 -1.07422 87.6465 -1.07422 Z"/>
  </g>
  <g id="Heavy-S" transform="matrix(1 0 0 1 2585 696)">
   <path d="M 16.6504 -1.17188 L 26.5625 -1.17188 C 31.1523 -1.17188 33.4473 -3.4668 33.4473 -8.05664 L 33.4473 -33.4961 C 33.3496 -34.082 33.252 -34.668 33.252 -35.3027 C 33.252 -35.9375 33.3496 -36.5234 33.4473 -37.1094 L 33.4473 -62.4023 C 33.4473 -66.8945 31.1523 -69.1406 26.5625 -69.2871 L 16.6504 -69.2871 C 12.0605 -69.2871 9.76562 -66.9922 9.76562 -62.4023 L 9.76562 -8.05664 C 9.66797 -3.4668 11.9629 -1.17188 16.6504 -1.17188 Z M 85.1562 -1.95312 C 89.7461 -1.95312 93.6035 -5.37109 93.6035 -11.2793 L 93.6035 -59.1309 C 93.6035 -65.1367 89.7949 -68.5059 85.2051 -68.5059 C 83.0566 -68.5059 81.1523 -68.0176 79.1016 -66.8457 L 39.209 -43.6035 C 36.2305 -41.8457 34.082 -39.8926 33.4473 -37.1094 L 33.4473 -33.4961 C 34.1309 -30.6152 36.3281 -28.5645 39.209 -26.8555 L 79.1016 -3.56445 C 81.1035 -2.44141 83.0566 -1.95312 85.1562 -1.95312 Z"/>
  </g>
  <g id="Bold-S" transform="matrix(1 0 0 1 2290.15 696)">
   <path d="M 16.1621 -2.00195 L 25.6836 -2.00195 C 29.9316 -2.00195 32.0801 -4.19922 32.0801 -8.39844 L 32.0801 -33.5938 C 31.9824 -34.1309 31.8848 -34.668 31.8848 -35.3027 C 31.8848 -35.8887 31.9824 -36.4746 32.0801 -37.0117 L 32.0801 -62.0605 C 32.0801 -66.2598 29.9316 -68.3594 25.6836 -68.457 L 16.1621 -68.457 C 11.9629 -68.457 9.76562 -66.2598 9.76562 -62.0605 L 9.76562 -8.39844 C 9.7168 -4.19922 11.8652 -2.00195 16.1621 -2.00195 Z M 82.373 -2.88086 C 86.4746 -2.88086 89.8926 -6.00586 89.8926 -11.4258 L 89.8926 -59.0332 C 89.8926 -64.502 86.5234 -67.5781 82.4219 -67.5781 C 80.4199 -67.5781 78.7109 -67.0898 76.7578 -65.9668 L 37.2559 -42.8711 C 34.5215 -41.2109 32.666 -39.4043 32.0801 -37.0117 L 32.0801 -33.5938 C 32.666 -31.1035 34.5703 -29.1992 37.2559 -27.5879 L 76.7578 -4.49219 C 78.6621 -3.36914 80.4199 -2.88086 82.373 -2.88086 Z"/>
  </g>
  <g id="Semibold-S" transform="matrix(1 0 0 1 1994.71 696)">
   <path d="M 15.8203 -2.63672 L 25.0977 -2.63672 C 29.1016 -2.63672 31.1523 -4.6875 31.1523 -8.64258 L 31.1523 -33.6426 C 31.0059 -34.1309 30.957 -34.7168 30.957 -35.2539 C 30.957 -35.8398 31.0059 -36.377 31.1523 -36.9141 L 31.1523 -61.8164 C 31.1523 -65.8203 29.1016 -67.7734 25.0977 -67.8223 L 15.8203 -67.8223 C 11.8652 -67.8223 9.76562 -65.7715 9.76562 -61.8164 L 9.76562 -8.64258 C 9.7168 -4.6875 11.8164 -2.63672 15.8203 -2.63672 Z M 80.4199 -3.56445 C 84.2285 -3.56445 87.3535 -6.39648 87.3535 -11.5234 L 87.3535 -58.9355 C 87.3535 -64.0625 84.2773 -66.9434 80.4688 -66.9434 C 78.6133 -66.9434 77.002 -66.4551 75.1465 -65.3809 L 35.9375 -42.334 C 33.3008 -40.8203 31.6895 -39.0625 31.1523 -36.9141 L 31.1523 -33.6426 C 31.6895 -31.4453 33.3496 -29.6387 35.9375 -28.125 L 75.1465 -5.12695 C 77.002 -4.05273 78.5645 -3.56445 80.4199 -3.56445 Z"/>
  </g>
  <g id="Medium-S" transform="matrix(1 0 0 1 1698.95 696)">
   <path d="M 15.5762 -3.07617 L 24.6582 -3.07617 C 28.4668 -3.07617 30.4199 -5.07812 30.4199 -8.83789 L 30.4199 -33.6914 C 30.3223 -34.1797 30.2246 -34.7168 30.2246 -35.2539 C 30.2246 -35.8398 30.3223 -36.377 30.4199 -36.8652 L 30.4199 -61.6211 C 30.4199 -65.5273 28.4668 -67.3828 24.6582 -67.3828 L 15.5762 -67.3828 C 11.7676 -67.3828 9.76562 -65.3809 9.76562 -61.6211 L 9.76562 -8.83789 C 9.7168 -5.07812 11.7188 -3.07617 15.5762 -3.07617 Z M 78.9551 -4.05273 C 82.5195 -4.05273 85.4492 -6.73828 85.4492 -11.6211 L 85.4492 -58.8867 C 85.4492 -63.7695 82.5195 -66.4551 79.0039 -66.4551 C 77.1973 -66.4551 75.7324 -65.9668 73.9746 -64.8926 L 34.9121 -41.9922 C 32.4219 -40.4785 30.957 -38.8184 30.4199 -36.8652 L 30.4199 -33.6914 C 30.957 -31.6895 32.4219 -29.9805 34.9121 -28.5156 L 73.9746 -5.56641 C 75.7324 -4.54102 77.1973 -4.05273 78.9551 -4.05273 Z"/>
  </g>
  <g id="Regular-S" transform="matrix(1 0 0 1 1403.48 696)">
   <path d="M 15.2344 -3.66211 L 24.0723 -3.66211 C 27.5879 -3.66211 29.4922 -5.56641 29.4922 -9.13086 L 29.4922 -33.6914 C 29.3945 -34.2285 29.2969 -34.7168 29.2969 -35.2539 C 29.2969 -35.791 29.3945 -36.2793 29.4922 -36.8164 L 29.4922 -61.377 C 29.4922 -65.0879 27.5879 -66.7969 24.0723 -66.7969 L 15.2344 -66.7969 C 11.6699 -66.7969 9.76562 -64.8926 9.76562 -61.377 L 9.76562 -9.13086 C 9.76562 -5.56641 11.6699 -3.66211 15.2344 -3.66211 Z M 77.0508 -4.6875 C 80.3223 -4.6875 82.959 -7.17773 82.959 -11.6699 L 82.959 -58.8379 C 82.959 -63.3301 80.3223 -65.8203 77.0508 -65.8203 C 75.3906 -65.8203 74.0723 -65.332 72.3633 -64.3066 L 33.5938 -41.5039 C 31.25 -40.0879 29.9805 -38.5254 29.4922 -36.8164 L 29.4922 -33.6914 C 29.9805 -31.9824 31.25 -30.4199 33.5938 -29.0527 L 72.3633 -6.20117 C 74.0723 -5.17578 75.3906 -4.6875 77.0508 -4.6875 Z"/>
  </g>
  <g id="Light-S" transform="matrix(1 0 0 1 1108.36 696)">
   <path d="M 14.5508 -4.44336 L 23.1445 -4.44336 C 26.3672 -4.44336 27.9785 -6.05469 27.9785 -9.27734 L 27.9785 -33.8379 C 27.832 -34.2773 27.7832 -34.7656 27.7832 -35.2539 C 27.7832 -35.791 27.832 -36.2305 27.9785 -36.7188 L 27.9785 -61.2305 C 27.9785 -64.5508 26.3672 -66.0156 23.1445 -66.0156 L 14.5508 -66.0156 C 11.377 -66.0156 9.76562 -64.4043 9.76562 -61.2305 L 9.76562 -9.27734 C 9.76562 -6.05469 11.377 -4.44336 14.5508 -4.44336 Z M 74.6094 -5.61523 C 77.3926 -5.61523 79.7852 -7.76367 79.7852 -11.8164 L 79.7852 -58.6914 C 79.7852 -62.793 77.3926 -64.8926 74.6094 -64.8926 C 73.1445 -64.8926 71.875 -64.4043 70.459 -63.5742 L 31.2988 -40.5273 C 29.4434 -39.4043 28.3691 -38.1348 27.9785 -36.7188 L 27.9785 -33.8379 C 28.3691 -32.373 29.4434 -31.1035 31.2988 -30.0293 L 70.459 -6.98242 C 71.875 -6.15234 73.1445 -5.61523 74.6094 -5.61523 Z"/>
  </g>
  <g id="Thin-S" transform="matrix(1 0 0 1 813.698 696)">
   <path d="M 13.7207 -5.46875 L 21.9727 -5.46875 C 24.707 -5.46875 25.9277 -6.68945 25.9277 -9.42383 L 25.9277 -33.9844 C 25.7812 -34.4238 25.7324 -34.8145 25.7324 -35.3027 C 25.7324 -35.7422 25.7812 -36.1816 25.9277 -36.5723 L 25.9277 -61.0352 C 25.9277 -63.8184 24.707 -64.9902 21.9727 -64.9902 L 13.7207 -64.9902 C 10.9863 -64.9902 9.76562 -63.7695 9.76562 -61.0352 L 9.76562 -9.42383 C 9.76562 -6.68945 10.9863 -5.46875 13.7207 -5.46875 Z M 71.3867 -6.83594 C 73.584 -6.83594 75.6836 -8.49609 75.6836 -12.0117 L 75.6836 -58.5449 C 75.6836 -62.0605 73.584 -63.7207 71.3867 -63.7207 C 70.166 -63.7207 68.9941 -63.1836 67.9199 -62.5488 L 28.2715 -39.2578 C 27.0508 -38.4766 26.2695 -37.6465 25.9277 -36.5723 L 25.9277 -33.9844 C 26.2695 -32.9102 27.0508 -32.0312 28.2715 -31.2988 L 67.9199 -8.00781 C 68.9941 -7.37305 70.166 -6.83594 71.3867 -6.83594 Z"/>
  </g>
  <g id="Ultralight-S" transform="matrix(1 0 0 1 518.061 696)">
   <path d="M 13.2812 -6.00586 L 21.3379 -6.00586 C 23.8281 -6.00586 24.8535 -7.03125 24.8535 -9.57031 L 24.8535 -34.082 C 24.707 -34.4727 24.6582 -34.8633 24.6582 -35.3027 C 24.6582 -35.7422 24.707 -36.1328 24.8535 -36.5234 L 24.8535 -60.9375 C 24.8535 -63.4766 23.8281 -64.4531 21.3379 -64.4531 L 13.2812 -64.4531 C 10.791 -64.4531 9.76562 -63.4766 9.76562 -60.9375 L 9.76562 -9.57031 C 9.76562 -7.03125 10.791 -6.00586 13.2812 -6.00586 Z M 69.7266 -7.4707 C 71.6309 -7.4707 73.5352 -8.88672 73.5352 -12.1094 L 73.5352 -58.4473 C 73.5352 -61.6699 71.6309 -63.0859 69.7266 -63.0859 C 68.6523 -63.0859 67.5293 -62.5488 66.6016 -62.0117 L 26.709 -38.5742 C 25.7812 -38.0371 25.1465 -37.3535 24.8535 -36.5234 L 24.8535 -34.082 C 25.1465 -33.2031 25.8301 -32.5195 26.709 -31.9824 L 66.6016 -8.54492 C 67.4805 -8.00781 68.6523 -7.4707 69.7266 -7.4707 Z"/>
  </g>
 </g>
</svg>
