<?xml version="1.0" encoding="UTF-8"?>
<!--Generator: Apple Native CoreSVG 123-->
<!DOCTYPE svg
PUBLIC "-//W3C//DTD SVG 1.1//EN"
       "http://www.w3.org/Graphics/SVG/1.1/DTD/svg11.dtd">
<svg version="1.1" xmlns="http://www.w3.org/2000/svg" xmlns:xlink="http://www.w3.org/1999/xlink" width="3300" height="2200">
 <!--glyph: "uni100290.medium", point size: 100.000000, font version: "Version 15.0d7e11", template writer version: "5"-->
 <g id="Notes">
  <rect height="2200" id="artboard" style="fill:white;opacity:1" width="3300" x="0" y="0"/>
  <line id="" style="fill:none;stroke:black;opacity:1;stroke-width:0.5;" x1="263" x2="3036" y1="292" y2="292"/>
  <text style="stroke:none;fill:black;font-family:-apple-system,&quot;SF Pro Display&quot;,&quot;SF Pro Text&quot;,Helvetica,sans-serif;font-weight:bold;" transform="matrix(1 0 0 1 263 322)">Weight/Scale Variations</text>
  <text style="stroke:none;fill:black;font-family:-apple-system,&quot;SF Pro Display&quot;,&quot;SF Pro Text&quot;,Helvetica,sans-serif;text-anchor:middle;" transform="matrix(1 0 0 1 559.711 322)">Ultralight</text>
  <text style="stroke:none;fill:black;font-family:-apple-system,&quot;SF Pro Display&quot;,&quot;SF Pro Text&quot;,Helvetica,sans-serif;text-anchor:middle;" transform="matrix(1 0 0 1 856.422 322)">Thin</text>
  <text style="stroke:none;fill:black;font-family:-apple-system,&quot;SF Pro Display&quot;,&quot;SF Pro Text&quot;,Helvetica,sans-serif;text-anchor:middle;" transform="matrix(1 0 0 1 1153.13 322)">Light</text>
  <text style="stroke:none;fill:black;font-family:-apple-system,&quot;SF Pro Display&quot;,&quot;SF Pro Text&quot;,Helvetica,sans-serif;text-anchor:middle;" transform="matrix(1 0 0 1 1449.84 322)">Regular</text>
  <text style="stroke:none;fill:black;font-family:-apple-system,&quot;SF Pro Display&quot;,&quot;SF Pro Text&quot;,Helvetica,sans-serif;text-anchor:middle;" transform="matrix(1 0 0 1 1746.56 322)">Medium</text>
  <text style="stroke:none;fill:black;font-family:-apple-system,&quot;SF Pro Display&quot;,&quot;SF Pro Text&quot;,Helvetica,sans-serif;text-anchor:middle;" transform="matrix(1 0 0 1 2043.27 322)">Semibold</text>
  <text style="stroke:none;fill:black;font-family:-apple-system,&quot;SF Pro Display&quot;,&quot;SF Pro Text&quot;,Helvetica,sans-serif;text-anchor:middle;" transform="matrix(1 0 0 1 2339.98 322)">Bold</text>
  <text style="stroke:none;fill:black;font-family:-apple-system,&quot;SF Pro Display&quot;,&quot;SF Pro Text&quot;,Helvetica,sans-serif;text-anchor:middle;" transform="matrix(1 0 0 1 2636.69 322)">Heavy</text>
  <text style="stroke:none;fill:black;font-family:-apple-system,&quot;SF Pro Display&quot;,&quot;SF Pro Text&quot;,Helvetica,sans-serif;text-anchor:middle;" transform="matrix(1 0 0 1 2933.4 322)">Black</text>
  <line id="" style="fill:none;stroke:black;opacity:1;stroke-width:0.5;" x1="263" x2="3036" y1="1903" y2="1903"/>
  <g id="" transform="matrix(1 0 0 1 263 1933)">
   <path d="M 9.24805 0.830078 C 13.5547 0.830078 17.1387 -2.74414 17.1387 -7.05078 C 17.1387 -11.3574 13.5449 -14.9316 9.23828 -14.9316 C 4.94141 -14.9316 1.36719 -11.3574 1.36719 -7.05078 C 1.36719 -2.74414 4.95117 0.830078 9.24805 0.830078 Z M 9.24805 -0.654297 C 5.70312 -0.654297 2.87109 -3.49609 2.87109 -7.05078 C 2.87109 -10.6055 5.69336 -13.4473 9.23828 -13.4473 C 12.793 -13.4473 15.6348 -10.6055 15.6445 -7.05078 C 15.6543 -3.49609 12.8027 -0.654297 9.24805 -0.654297 Z M 9.22852 -3.42773 C 9.69727 -3.42773 9.9707 -3.74023 9.9707 -4.25781 L 9.9707 -6.31836 L 12.1973 -6.31836 C 12.6953 -6.31836 13.0371 -6.57227 13.0371 -7.04102 C 13.0371 -7.51953 12.7148 -7.7832 12.1973 -7.7832 L 9.9707 -7.7832 L 9.9707 -10.0098 C 9.9707 -10.5273 9.69727 -10.8496 9.22852 -10.8496 C 8.75977 -10.8496 8.50586 -10.5078 8.50586 -10.0098 L 8.50586 -7.7832 L 6.29883 -7.7832 C 5.78125 -7.7832 5.44922 -7.51953 5.44922 -7.04102 C 5.44922 -6.57227 5.80078 -6.31836 6.29883 -6.31836 L 8.50586 -6.31836 L 8.50586 -4.25781 C 8.50586 -3.75977 8.75977 -3.42773 9.22852 -3.42773 Z"/>
  </g>
  <g id="" transform="matrix(1 0 0 1 281.506 1933)">
   <path d="M 11.709 2.91016 C 17.1582 2.91016 21.6699 -1.60156 21.6699 -7.05078 C 21.6699 -12.4902 17.1484 -17.0117 11.6992 -17.0117 C 6.25977 -17.0117 1.74805 -12.4902 1.74805 -7.05078 C 1.74805 -1.60156 6.26953 2.91016 11.709 2.91016 Z M 11.709 1.25 C 7.09961 1.25 3.41797 -2.44141 3.41797 -7.05078 C 3.41797 -11.6504 7.08984 -15.3516 11.6992 -15.3516 C 16.3086 -15.3516 20 -11.6504 20.0098 -7.05078 C 20.0195 -2.44141 16.3184 1.25 11.709 1.25 Z M 11.6895 -2.41211 C 12.207 -2.41211 12.5195 -2.77344 12.5195 -3.33984 L 12.5195 -6.23047 L 15.5762 -6.23047 C 16.123 -6.23047 16.5039 -6.51367 16.5039 -7.03125 C 16.5039 -7.55859 16.1426 -7.86133 15.5762 -7.86133 L 12.5195 -7.86133 L 12.5195 -10.9277 C 12.5195 -11.5039 12.207 -11.8555 11.6895 -11.8555 C 11.1719 -11.8555 10.8789 -11.4844 10.8789 -10.9277 L 10.8789 -7.86133 L 7.83203 -7.86133 C 7.26562 -7.86133 6.89453 -7.55859 6.89453 -7.03125 C 6.89453 -6.51367 7.28516 -6.23047 7.83203 -6.23047 L 10.8789 -6.23047 L 10.8789 -3.33984 C 10.8789 -2.79297 11.1719 -2.41211 11.6895 -2.41211 Z"/>
  </g>
  <g id="" transform="matrix(1 0 0 1 304.924 1933)">
   <path d="M 14.9707 5.67383 C 21.9336 5.67383 27.6953 -0.078125 27.6953 -7.04102 C 27.6953 -14.0039 21.9238 -19.7559 14.9609 -19.7559 C 8.00781 -19.7559 2.25586 -14.0039 2.25586 -7.04102 C 2.25586 -0.078125 8.01758 5.67383 14.9707 5.67383 Z M 14.9707 3.85742 C 8.93555 3.85742 4.08203 -1.00586 4.08203 -7.04102 C 4.08203 -13.0762 8.92578 -17.9395 14.9609 -17.9395 C 21.0059 -17.9395 25.8594 -13.0762 25.8691 -7.04102 C 25.8789 -1.00586 21.0156 3.85742 14.9707 3.85742 Z M 14.9512 -1.06445 C 15.5176 -1.06445 15.8691 -1.45508 15.8691 -2.06055 L 15.8691 -6.13281 L 20.1074 -6.13281 C 20.6934 -6.13281 21.1133 -6.46484 21.1133 -7.02148 C 21.1133 -7.59766 20.7227 -7.93945 20.1074 -7.93945 L 15.8691 -7.93945 L 15.8691 -12.1875 C 15.8691 -12.8027 15.5176 -13.1934 14.9512 -13.1934 C 14.3848 -13.1934 14.0625 -12.7832 14.0625 -12.1875 L 14.0625 -7.93945 L 9.83398 -7.93945 C 9.21875 -7.93945 8.80859 -7.59766 8.80859 -7.02148 C 8.80859 -6.46484 9.23828 -6.13281 9.83398 -6.13281 L 14.0625 -6.13281 L 14.0625 -2.06055 C 14.0625 -1.47461 14.3848 -1.06445 14.9512 -1.06445 Z"/>
  </g>
  <text style="stroke:none;fill:black;font-family:-apple-system,&quot;SF Pro Display&quot;,&quot;SF Pro Text&quot;,Helvetica,sans-serif;font-weight:bold;" transform="matrix(1 0 0 1 263 1953)">Design Variations</text>
  <text style="stroke:none;fill:black;font-family:-apple-system,&quot;SF Pro Display&quot;,&quot;SF Pro Text&quot;,Helvetica,sans-serif;" transform="matrix(1 0 0 1 263 1971)">Symbols are supported in up to nine weights and three scales.</text>
  <text style="stroke:none;fill:black;font-family:-apple-system,&quot;SF Pro Display&quot;,&quot;SF Pro Text&quot;,Helvetica,sans-serif;" transform="matrix(1 0 0 1 263 1989)">For optimal layout with text and other symbols, vertically align</text>
  <text style="stroke:none;fill:black;font-family:-apple-system,&quot;SF Pro Display&quot;,&quot;SF Pro Text&quot;,Helvetica,sans-serif;" transform="matrix(1 0 0 1 263 2007)">symbols with the adjacent text.</text>
  <rect height="14" id="" style="fill:#00AEEF;stroke:none;opacity:0.4;" width="3" x="776" y="1919"/>
  <g id="" transform="matrix(1 0 0 1 779 1933)">
   <path d="M 10.5273 0 L 12.373 0 L 7.17773 -14.0918 L 5.43945 -14.0918 L 0.244141 0 L 2.08984 0 L 3.50586 -4.0332 L 9.11133 -4.0332 Z M 6.2793 -11.9531 L 6.33789 -11.9531 L 8.59375 -5.52734 L 4.02344 -5.52734 Z"/>
  </g>
  <rect height="14" id="" style="fill:#00AEEF;stroke:none;opacity:0.4;" width="3" x="791.617" y="1919"/>
  <text style="stroke:none;fill:black;font-family:-apple-system,&quot;SF Pro Display&quot;,&quot;SF Pro Text&quot;,Helvetica,sans-serif;font-weight:bold;" transform="matrix(1 0 0 1 776 1953)">Margins</text>
  <text style="stroke:none;fill:black;font-family:-apple-system,&quot;SF Pro Display&quot;,&quot;SF Pro Text&quot;,Helvetica,sans-serif;" transform="matrix(1 0 0 1 776 1971)">Leading and trailing margins on the left and right side of each symbol</text>
  <text style="stroke:none;fill:black;font-family:-apple-system,&quot;SF Pro Display&quot;,&quot;SF Pro Text&quot;,Helvetica,sans-serif;" transform="matrix(1 0 0 1 776 1989)">can be adjusted by modifying the width of the blue rectangles.</text>
  <text style="stroke:none;fill:black;font-family:-apple-system,&quot;SF Pro Display&quot;,&quot;SF Pro Text&quot;,Helvetica,sans-serif;" transform="matrix(1 0 0 1 776 2007)">Modifications are automatically applied proportionally to all</text>
  <text style="stroke:none;fill:black;font-family:-apple-system,&quot;SF Pro Display&quot;,&quot;SF Pro Text&quot;,Helvetica,sans-serif;" transform="matrix(1 0 0 1 776 2025)">scales and weights.</text>
  <g id="" transform="matrix(1 0 0 1 1289 1933)">
   <path d="M 2.83203 3.11523 L 4.375 4.6582 C 5.22461 5.48828 6.19141 5.41992 7.06055 4.46289 L 17.2754 -6.66016 C 17.7051 -6.36719 18.0957 -6.37695 18.5645 -6.47461 L 19.6094 -6.68945 L 20.3027 -5.99609 L 20.2539 -5.47852 C 20.1855 -4.95117 20.3516 -4.53125 20.8496 -4.0332 L 21.6602 -3.22266 C 22.168 -2.71484 22.8223 -2.68555 23.3008 -3.16406 L 26.5527 -6.41602 C 27.0312 -6.89453 27.0117 -7.54883 26.5039 -8.05664 L 25.6836 -8.87695 C 25.1855 -9.375 24.7754 -9.55078 24.2383 -9.47266 L 23.7109 -9.41406 L 23.0566 -10.0781 L 23.3398 -11.2207 C 23.4863 -11.7871 23.3398 -12.2559 22.7148 -12.8613 L 20.3027 -15.2539 C 16.7578 -18.7793 12.2266 -18.6719 9.11133 -15.5371 C 8.69141 -15.1074 8.64258 -14.5215 8.91602 -14.0918 C 9.15039 -13.7207 9.62891 -13.4961 10.2734 -13.6621 C 11.7871 -14.043 13.3008 -13.9258 14.7852 -12.9199 L 14.1602 -11.3379 C 13.9258 -10.752 13.9453 -10.2734 14.1797 -9.83398 L 3.01758 0.439453 C 2.08008 1.30859 1.97266 2.25586 2.83203 3.11523 Z M 10.6738 -15.1465 C 13.3398 -17.1387 16.6504 -16.8262 19.0527 -14.4141 L 21.6797 -11.8066 C 21.9141 -11.5723 21.9434 -11.3867 21.8848 -11.0938 L 21.5039 -9.53125 L 23.0762 -7.95898 L 24.043 -8.04688 C 24.3262 -8.07617 24.4141 -8.05664 24.6387 -7.83203 L 25.2637 -7.20703 L 22.5098 -4.46289 L 21.8848 -5.07812 C 21.6602 -5.30273 21.6406 -5.40039 21.6699 -5.68359 L 21.7578 -6.64062 L 20.1953 -8.20312 L 18.5742 -7.89062 C 18.291 -7.83203 18.1445 -7.83203 17.9102 -8.07617 L 15.7324 -10.2539 C 15.5078 -10.4883 15.4785 -10.625 15.6055 -10.9473 L 16.5527 -13.2227 C 14.9512 -14.7559 12.8418 -15.6055 10.8008 -14.9512 C 10.7129 -14.9219 10.6445 -14.9414 10.6152 -14.9805 C 10.5859 -15.0293 10.5859 -15.0781 10.6738 -15.1465 Z M 4.10156 2.41211 C 3.61328 1.91406 3.78906 1.61133 4.12109 1.30859 L 15.0781 -8.80859 L 16.3086 -7.57812 L 6.15234 3.34961 C 5.84961 3.68164 5.46875 3.7793 5.06836 3.37891 Z"/>
  </g>
  <text style="stroke:none;fill:black;font-family:-apple-system,&quot;SF Pro Display&quot;,&quot;SF Pro Text&quot;,Helvetica,sans-serif;font-weight:bold;" transform="matrix(1 0 0 1 1289 1953)">Exporting</text>
  <text style="stroke:none;fill:black;font-family:-apple-system,&quot;SF Pro Display&quot;,&quot;SF Pro Text&quot;,Helvetica,sans-serif;" transform="matrix(1 0 0 1 1289 1971)">Symbols should be outlined when exporting to ensure the</text>
  <text style="stroke:none;fill:black;font-family:-apple-system,&quot;SF Pro Display&quot;,&quot;SF Pro Text&quot;,Helvetica,sans-serif;" transform="matrix(1 0 0 1 1289 1989)">design is preserved when submitting to Xcode.</text>
  <text id="template-version" style="stroke:none;fill:black;font-family:-apple-system,&quot;SF Pro Display&quot;,&quot;SF Pro Text&quot;,Helvetica,sans-serif;text-anchor:end;" transform="matrix(1 0 0 1 3036 1933)">Template v.1.0</text>
  <text style="stroke:none;fill:black;font-family:-apple-system,&quot;SF Pro Display&quot;,&quot;SF Pro Text&quot;,Helvetica,sans-serif;text-anchor:end;" transform="matrix(1 0 0 1 3036 1951)">Generated from forward.end.fill</text>
  <text style="stroke:none;fill:black;font-family:-apple-system,&quot;SF Pro Display&quot;,&quot;SF Pro Text&quot;,Helvetica,sans-serif;text-anchor:end;" transform="matrix(1 0 0 1 3036 1969)">Typeset at 100 points</text>
  <text style="stroke:none;fill:black;font-family:-apple-system,&quot;SF Pro Display&quot;,&quot;SF Pro Text&quot;,Helvetica,sans-serif;" transform="matrix(1 0 0 1 263 726)">Small</text>
  <text style="stroke:none;fill:black;font-family:-apple-system,&quot;SF Pro Display&quot;,&quot;SF Pro Text&quot;,Helvetica,sans-serif;" transform="matrix(1 0 0 1 263 1156)">Medium</text>
  <text style="stroke:none;fill:black;font-family:-apple-system,&quot;SF Pro Display&quot;,&quot;SF Pro Text&quot;,Helvetica,sans-serif;" transform="matrix(1 0 0 1 263 1586)">Large</text>
 </g>
 <g id="Guides">
  <g id="H-reference" style="fill:#27AAE1;stroke:none;" transform="matrix(1 0 0 1 339 696)">
   <path d="M 54.9316 0 L 57.666 0 L 30.5664 -70.459 L 28.0762 -70.459 L 0.976562 0 L 3.66211 0 L 12.9395 -24.4629 L 45.7031 -24.4629 Z M 29.1992 -67.0898 L 29.4434 -67.0898 L 44.8242 -26.709 L 13.8184 -26.709 Z"/>
  </g>
  <line id="Baseline-S" style="fill:none;stroke:#27AAE1;opacity:1;stroke-width:0.577;" x1="263" x2="3036" y1="696" y2="696"/>
  <line id="Capline-S" style="fill:none;stroke:#27AAE1;opacity:1;stroke-width:0.577;" x1="263" x2="3036" y1="625.541" y2="625.541"/>
  <g id="H-reference" style="fill:#27AAE1;stroke:none;" transform="matrix(1 0 0 1 339 1126)">
   <path d="M 54.9316 0 L 57.666 0 L 30.5664 -70.459 L 28.0762 -70.459 L 0.976562 0 L 3.66211 0 L 12.9395 -24.4629 L 45.7031 -24.4629 Z M 29.1992 -67.0898 L 29.4434 -67.0898 L 44.8242 -26.709 L 13.8184 -26.709 Z"/>
  </g>
  <line id="Baseline-M" style="fill:none;stroke:#27AAE1;opacity:1;stroke-width:0.577;" x1="263" x2="3036" y1="1126" y2="1126"/>
  <line id="Capline-M" style="fill:none;stroke:#27AAE1;opacity:1;stroke-width:0.577;" x1="263" x2="3036" y1="1055.54" y2="1055.54"/>
  <g id="H-reference" style="fill:#27AAE1;stroke:none;" transform="matrix(1 0 0 1 339 1556)">
   <path d="M 54.9316 0 L 57.666 0 L 30.5664 -70.459 L 28.0762 -70.459 L 0.976562 0 L 3.66211 0 L 12.9395 -24.4629 L 45.7031 -24.4629 Z M 29.1992 -67.0898 L 29.4434 -67.0898 L 44.8242 -26.709 L 13.8184 -26.709 Z"/>
  </g>
  <line id="Baseline-L" style="fill:none;stroke:#27AAE1;opacity:1;stroke-width:0.577;" x1="263" x2="3036" y1="1556" y2="1556"/>
  <line id="Capline-L" style="fill:none;stroke:#27AAE1;opacity:1;stroke-width:0.577;" x1="263" x2="3036" y1="1485.54" y2="1485.54"/>
  <rect height="119.336" id="left-margin" style="fill:#00AEEF;stroke:none;opacity:0.4;" width="12.4512" x="1391.79" y="1030.79"/>
  <rect height="119.336" id="right-margin" style="fill:#00AEEF;stroke:none;opacity:0.4;" width="12.4512" x="1495.45" y="1030.79"/>
 </g>
 <g id="Symbols">
  <g id="Black-L" transform="matrix(1 0 0 1 2848.61 1556)">
   <path d="M 29.834 19.4824 C 33.252 19.4824 36.4258 18.6523 39.7461 16.748 L 105.273 -21.5332 C 110.059 -24.3164 113.623 -27.7344 114.697 -32.373 L 114.697 9.47266 C 114.697 16.9434 118.311 20.752 125.977 20.752 L 142.236 20.752 C 149.707 20.752 153.516 16.9434 153.516 9.47266 L 153.516 -79.9316 C 153.516 -87.2559 149.707 -91.2109 142.236 -91.2109 L 125.977 -91.2109 C 118.506 -91.2109 114.697 -87.4023 114.697 -79.9316 L 114.697 -38.2812 C 113.672 -42.8711 110.156 -46.0449 105.273 -48.877 L 39.7461 -87.1582 C 36.377 -89.0625 33.2031 -89.8926 29.6875 -89.8926 C 22.2168 -89.8926 16.0645 -84.375 16.0645 -74.5605 L 16.0645 4.15039 C 16.0645 13.8672 22.3633 19.4824 29.834 19.4824 Z"/>
  </g>
  <g id="Heavy-L" transform="matrix(1 0 0 1 2554.58 1556)">
   <path d="M 28.5645 18.0176 C 31.7383 18.0176 34.668 17.1875 37.7441 15.4297 L 103.027 -22.7539 C 107.373 -25.3418 110.547 -28.418 111.523 -32.5195 L 111.523 9.0332 C 111.523 15.9668 114.893 19.4824 121.973 19.4824 L 137.695 19.4824 C 144.629 19.4824 148.145 15.9668 148.145 9.0332 L 148.145 -79.4922 C 148.145 -86.3281 144.629 -89.9414 137.695 -89.9414 L 121.973 -89.9414 C 115.039 -89.9414 111.523 -86.4258 111.523 -79.4922 L 111.523 -38.1348 C 110.547 -42.1387 107.471 -45.0684 103.027 -47.7051 L 37.7441 -85.8887 C 34.6191 -87.6465 31.7383 -88.4766 28.4668 -88.4766 C 21.6797 -88.4766 16.0645 -83.4473 16.0645 -74.4141 L 16.0645 3.95508 C 16.0645 12.9395 21.7773 18.0176 28.5645 18.0176 Z"/>
  </g>
  <g id="Bold-L" transform="matrix(1 0 0 1 2260.85 1556)">
   <path d="M 27.1484 16.4062 C 30.0781 16.4062 32.7148 15.5762 35.498 13.9648 L 100.537 -24.1699 C 104.395 -26.4648 107.031 -29.1992 107.91 -32.666 L 107.91 8.49609 C 107.91 14.8438 111.035 18.0176 117.48 18.0176 L 132.666 18.0176 C 138.965 18.0176 142.188 14.8438 142.188 8.49609 L 142.188 -78.9551 C 142.188 -85.3516 138.965 -88.5254 132.666 -88.5254 L 117.48 -88.5254 C 111.133 -88.5254 107.91 -85.3027 107.91 -78.9551 L 107.91 -37.9883 C 107.08 -41.4062 104.492 -43.9941 100.537 -46.3379 L 35.498 -84.4727 C 32.666 -86.084 30.0293 -86.9141 27.0996 -86.9141 C 21.0938 -86.9141 16.0645 -82.4219 16.0645 -74.2188 L 16.0645 3.71094 C 16.0645 11.9141 21.1426 16.4062 27.1484 16.4062 Z"/>
  </g>
  <g id="Semibold-L" transform="matrix(1 0 0 1 1966.22 1556)">
   <path d="M 26.1719 15.2832 C 28.9062 15.2832 31.3477 14.4531 33.9355 12.9395 L 98.8281 -25.1465 C 102.344 -27.1973 104.688 -29.6875 105.469 -32.7637 L 105.469 8.1543 C 105.469 14.0625 108.398 17.041 114.355 17.041 L 129.15 17.041 C 135.059 17.041 138.037 14.0625 138.037 8.1543 L 138.037 -78.6133 C 138.037 -84.6191 135.059 -87.5488 129.15 -87.5488 L 114.355 -87.5488 C 108.447 -87.5488 105.469 -84.5703 105.469 -78.6133 L 105.469 -37.8418 C 104.688 -40.8691 102.393 -43.2617 98.8281 -45.4102 L 33.9355 -83.4473 C 31.2988 -85.0098 28.9062 -85.8398 26.1719 -85.8398 C 20.7031 -85.8398 16.0645 -81.7383 16.0645 -74.0723 L 16.0645 3.56445 C 16.0645 11.1816 20.7031 15.2832 26.1719 15.2832 Z"/>
  </g>
  <g id="Medium-L" transform="matrix(1 0 0 1 1671.07 1556)">
   <path d="M 25.4395 14.4531 C 28.0273 14.4531 30.3223 13.623 32.8125 12.1582 L 97.5098 -25.8789 C 100.83 -27.7832 102.881 -30.0781 103.613 -32.8613 L 103.613 7.86133 C 103.613 13.4766 106.396 16.3086 112.061 16.3086 L 126.514 16.3086 C 132.129 16.3086 134.912 13.4766 134.912 7.86133 L 134.912 -78.3691 C 134.912 -84.1309 132.129 -86.7676 126.514 -86.7676 L 112.061 -86.7676 C 106.445 -86.7676 103.613 -83.9844 103.613 -78.3691 L 103.613 -37.793 C 102.881 -40.4785 100.83 -42.7246 97.5098 -44.6777 L 32.8125 -82.7148 C 30.2734 -84.1797 28.0273 -85.0098 25.4395 -85.0098 C 20.3613 -85.0098 16.0645 -81.2012 16.0645 -73.9746 L 16.0645 3.4668 C 16.0645 10.6445 20.4102 14.4531 25.4395 14.4531 Z"/>
  </g>
  <g id="Regular-L" transform="matrix(1 0 0 1 1376.38 1556)">
   <path d="M 24.5117 13.3789 C 26.8555 13.3789 28.9551 12.5488 31.25 11.1816 L 95.8008 -26.8066 C 98.7793 -28.5645 100.488 -30.6152 101.172 -32.959 L 101.172 7.51953 C 101.172 12.7441 103.76 15.332 108.984 15.332 L 123.047 15.332 C 128.271 15.332 130.859 12.7441 130.859 7.51953 L 130.859 -78.0273 C 130.859 -83.3984 128.271 -85.8398 123.047 -85.8398 L 108.984 -85.8398 C 103.76 -85.8398 101.172 -83.2031 101.172 -78.0273 L 101.172 -37.6465 C 100.488 -39.9902 98.7793 -41.9922 95.8008 -43.75 L 31.25 -81.7383 C 28.9062 -83.1055 26.8555 -83.9355 24.5117 -83.9355 C 19.9707 -83.9355 16.0645 -80.5176 16.0645 -73.877 L 16.0645 3.27148 C 16.0645 9.91211 19.9707 13.3789 24.5117 13.3789 Z"/>
  </g>
  <g id="Light-L" transform="matrix(1 0 0 1 1081.65 1556)">
   <path d="M 23.6328 12.207 C 25.7324 12.207 27.7832 11.3281 29.7363 10.2051 L 94.7266 -28.0273 C 97.0703 -29.4434 98.584 -31.1035 99.1699 -33.1055 L 99.1699 7.32422 C 99.1699 12.1094 101.416 14.3066 106.152 14.3066 L 119.922 14.3066 C 124.658 14.3066 126.904 12.1094 126.904 7.32422 L 126.904 -77.832 C 126.904 -82.7148 124.658 -84.8145 119.922 -84.8145 L 106.152 -84.8145 C 101.416 -84.8145 99.1699 -82.6172 99.1699 -77.832 L 99.1699 -37.5488 C 98.584 -39.502 97.1191 -41.1133 94.7266 -42.5293 L 29.7363 -80.8105 C 27.7344 -81.9336 25.7324 -82.7637 23.6328 -82.7637 C 19.6289 -82.7637 16.0645 -79.7852 16.0645 -73.7305 L 16.0645 3.125 C 16.0645 9.17969 19.6289 12.207 23.6328 12.207 Z"/>
  </g>
  <g id="Thin-L" transform="matrix(1 0 0 1 787.55 1556)">
   <path d="M 22.4609 10.6445 C 24.2676 10.6445 26.2207 9.76562 27.6855 8.88672 L 93.3105 -29.6875 C 94.873 -30.6152 95.9961 -31.7871 96.5332 -33.3496 L 96.5332 7.08008 C 96.5332 11.2793 98.291 12.9883 102.441 12.9883 L 115.771 12.9883 C 119.922 12.9883 121.68 11.2793 121.68 7.08008 L 121.68 -77.6367 C 121.68 -81.8359 119.922 -83.5449 115.771 -83.5449 L 102.441 -83.5449 C 98.291 -83.5449 96.5332 -81.7871 96.5332 -77.6367 L 96.5332 -37.3535 C 96.0449 -38.8184 94.9219 -39.9902 93.3105 -40.918 L 27.6855 -79.4922 C 26.123 -80.3711 24.2676 -81.25 22.4609 -81.25 C 19.2383 -81.25 16.0645 -78.8574 16.0645 -73.5352 L 16.0645 2.92969 C 16.0645 8.25195 19.2383 10.6445 22.4609 10.6445 Z"/>
  </g>
  <g id="Ultralight-L" transform="matrix(1 0 0 1 492.182 1556)">
   <path d="M 21.875 9.86328 C 23.4863 9.86328 25.3906 8.98438 26.6602 8.25195 L 92.5781 -30.5176 C 93.75 -31.2012 94.7266 -32.1777 95.166 -33.4473 L 95.166 6.98242 C 95.166 10.8398 96.6797 12.3535 100.537 12.3535 L 113.623 12.3535 C 117.529 12.3535 118.994 10.8398 118.994 6.98242 L 118.994 -77.5391 C 118.994 -81.3477 117.529 -82.8613 113.623 -82.8613 L 100.537 -82.8613 C 96.6797 -82.8613 95.166 -81.3965 95.166 -77.5391 L 95.166 -37.2559 C 94.7266 -38.4766 93.7988 -39.3555 92.5781 -40.0879 L 26.6602 -78.8574 C 25.3418 -79.5898 23.4863 -80.4688 21.875 -80.4688 C 18.9941 -80.4688 16.0645 -78.3691 16.0645 -73.4375 L 16.0645 2.7832 C 16.0645 7.76367 18.9941 9.86328 21.875 9.86328 Z"/>
  </g>
  <g id="Black-M" transform="matrix(1 0 0 1 2865.14 1126)">
   <path d="M 24.3164 8.49609 C 27.1973 8.49609 29.9805 7.86133 32.666 6.29883 L 84.0332 -23.584 C 87.9395 -25.8789 91.2109 -28.7109 92.1387 -32.9102 L 92.1387 -0.0488281 C 92.1387 6.20117 95.0684 9.32617 101.514 9.32617 L 114.648 9.32617 C 120.947 9.32617 124.072 6.20117 124.072 -0.0488281 L 124.072 -70.4102 C 124.072 -76.416 120.947 -79.7852 114.648 -79.7852 L 101.514 -79.7852 C 95.2637 -79.7852 92.1387 -76.6602 92.1387 -70.4102 L 92.1387 -37.7441 C 91.2109 -41.8457 88.0859 -44.4336 84.0332 -46.8262 L 32.666 -76.6602 C 29.9316 -78.2227 27.1484 -78.8574 24.2188 -78.8574 C 17.7734 -78.8574 12.4512 -74.1699 12.4512 -65.8691 L 12.4512 -4.54102 C 12.4512 3.71094 17.9199 8.49609 24.3164 8.49609 Z"/>
  </g>
  <g id="Heavy-M" transform="matrix(1 0 0 1 2570.84 1126)">
   <path d="M 23.1934 7.22656 C 25.8789 7.22656 28.3691 6.5918 30.9082 5.12695 L 81.8359 -24.6094 C 85.498 -26.7578 88.3301 -29.3457 89.1602 -33.0566 L 89.1602 -0.537109 C 89.1602 5.27344 91.9434 8.20312 97.8516 8.20312 L 110.547 8.20312 C 116.309 8.20312 119.238 5.27344 119.238 -0.537109 L 119.238 -69.9219 C 119.238 -75.5859 116.309 -78.6621 110.547 -78.6621 L 97.8516 -78.6621 C 92.0898 -78.6621 89.1602 -75.7324 89.1602 -69.9219 L 89.1602 -37.5977 C 88.3301 -41.2109 85.5957 -43.6035 81.8359 -45.8008 L 30.9082 -75.5371 C 28.3203 -77.002 25.8301 -77.6367 23.0957 -77.6367 C 17.2852 -77.6367 12.4512 -73.3398 12.4512 -65.7227 L 12.4512 -4.6875 C 12.4512 2.88086 17.3828 7.22656 23.1934 7.22656 Z"/>
  </g>
  <g id="Bold-M" transform="matrix(1 0 0 1 2276.82 1126)">
   <path d="M 21.9238 5.76172 C 24.3652 5.76172 26.5625 5.17578 28.9062 3.80859 L 79.4434 -25.7812 C 82.7637 -27.7344 85.1074 -30.0781 85.8398 -33.1543 L 85.8398 -1.02539 C 85.8398 4.24805 88.4277 6.93359 93.7988 6.93359 L 105.908 6.93359 C 111.182 6.93359 113.867 4.24805 113.867 -1.02539 L 113.867 -69.4336 C 113.867 -74.707 111.182 -77.3926 105.908 -77.3926 L 93.7988 -77.3926 C 88.5254 -77.3926 85.8398 -74.707 85.8398 -69.4336 L 85.8398 -37.4512 C 85.1074 -40.4785 82.8125 -42.6758 79.4434 -44.6777 L 28.9062 -74.2676 C 26.5137 -75.6348 24.3164 -76.2695 21.8262 -76.2695 C 16.6992 -76.2695 12.4512 -72.4121 12.4512 -65.5762 L 12.4512 -4.88281 C 12.4512 1.95312 16.7969 5.76172 21.9238 5.76172 Z"/>
  </g>
  <g id="Semibold-M" transform="matrix(1 0 0 1 1981.96 1126)">
   <path d="M 21.0449 4.78516 C 23.291 4.78516 25.293 4.15039 27.4902 2.88086 L 77.7832 -26.6113 C 80.8594 -28.418 82.8613 -30.5664 83.5449 -33.252 L 83.5449 -1.36719 C 83.5449 3.51562 85.9863 6.05469 90.9668 6.05469 L 102.734 6.05469 C 107.617 6.05469 110.156 3.51562 110.156 -1.36719 L 110.156 -69.0918 C 110.156 -74.0723 107.617 -76.5137 102.734 -76.5137 L 90.9668 -76.5137 C 86.0352 -76.5137 83.5449 -74.0234 83.5449 -69.0918 L 83.5449 -37.3535 C 82.8613 -39.9902 80.9082 -42.041 77.7832 -43.8965 L 27.4902 -73.3887 C 25.293 -74.6582 23.291 -75.293 20.9961 -75.293 C 16.3086 -75.293 12.4512 -71.8262 12.4512 -65.4297 L 12.4512 -5.0293 C 12.4512 1.31836 16.3574 4.78516 21.0449 4.78516 Z"/>
  </g>
  <g id="Medium-M" transform="matrix(1 0 0 1 1686.67 1126)">
   <path d="M 20.3613 4.05273 C 22.5098 4.05273 24.3652 3.41797 26.4648 2.19727 L 76.5137 -27.1973 C 79.3945 -28.9062 81.2012 -30.9082 81.7871 -33.3008 L 81.7871 -1.66016 C 81.7871 2.97852 84.1797 5.37109 88.8184 5.37109 L 100.293 5.37109 C 104.932 5.37109 107.324 2.97852 107.324 -1.66016 L 107.324 -68.8477 C 107.324 -73.584 104.932 -75.8789 100.293 -75.8789 L 88.8184 -75.8789 C 84.1797 -75.8789 81.7871 -73.4863 81.7871 -68.8477 L 81.7871 -37.2559 C 81.2012 -39.6484 79.4434 -41.5527 76.5137 -43.3105 L 26.4648 -72.7051 C 24.3164 -73.9258 22.5098 -74.5605 20.3125 -74.5605 C 16.0156 -74.5605 12.4512 -71.3379 12.4512 -65.3809 L 12.4512 -5.12695 C 12.4512 0.830078 16.0645 4.05273 20.3613 4.05273 Z"/>
  </g>
  <g id="Regular-M" transform="matrix(1 0 0 1 1391.79 1126)">
   <path d="M 19.4824 3.07617 C 21.4844 3.07617 23.0957 2.44141 25.0977 1.26953 L 74.8535 -27.9785 C 77.4902 -29.5898 79.0039 -31.3477 79.541 -33.3984 L 79.541 -2.00195 C 79.541 2.29492 81.7871 4.54102 86.0352 4.54102 L 97.168 4.54102 C 101.465 4.54102 103.662 2.29492 103.662 -2.00195 L 103.662 -68.5059 C 103.662 -72.9492 101.465 -75 97.168 -75 L 86.0352 -75 C 81.7871 -75 79.541 -72.7539 79.541 -68.5059 L 79.541 -37.1582 C 79.0039 -39.1602 77.4902 -40.9668 74.8535 -42.5293 L 25.0977 -71.8262 C 23.0957 -72.998 21.4844 -73.6328 19.4824 -73.6328 C 15.625 -73.6328 12.4512 -70.7031 12.4512 -65.2344 L 12.4512 -5.27344 C 12.4512 0.195312 15.625 3.07617 19.4824 3.07617 Z"/>
  </g>
  <g id="Light-M" transform="matrix(1 0 0 1 1096.86 1126)">
   <path d="M 18.7012 2.05078 C 20.459 2.05078 22.0703 1.41602 23.7305 0.390625 L 73.9258 -29.1016 C 75.9766 -30.3711 77.2461 -31.7871 77.7344 -33.4961 L 77.7344 -2.14844 C 77.7344 1.75781 79.6387 3.61328 83.5449 3.61328 L 94.3359 3.61328 C 98.2422 3.61328 100.098 1.75781 100.098 -2.14844 L 100.098 -68.3105 C 100.098 -72.3633 98.2422 -74.1211 94.3359 -74.1211 L 83.5449 -74.1211 C 79.6387 -74.1211 77.7344 -72.2168 77.7344 -68.3105 L 77.7344 -37.0605 C 77.2461 -38.7695 76.0254 -40.1855 73.9258 -41.4551 L 23.7305 -70.9473 C 22.0215 -71.9238 20.459 -72.6074 18.7012 -72.6074 C 15.3809 -72.6074 12.4512 -70.0684 12.4512 -65.1367 L 12.4512 -5.41992 C 12.4512 -0.488281 15.3809 2.05078 18.7012 2.05078 Z"/>
  </g>
  <g id="Thin-M" transform="matrix(1 0 0 1 802.492 1126)">
   <path d="M 17.6758 0.683594 C 19.1406 0.683594 20.6543 0 21.9238 -0.732422 L 72.6074 -30.5664 C 74.0234 -31.3965 74.9512 -32.4219 75.3906 -33.6914 L 75.3906 -2.39258 C 75.3906 0.976562 76.8555 2.44141 80.2246 2.44141 L 90.625 2.44141 C 93.9941 2.44141 95.4102 0.976562 95.4102 -2.39258 L 95.4102 -68.1152 C 95.4102 -71.5332 93.9941 -72.9492 90.625 -72.9492 L 80.2246 -72.9492 C 76.8555 -72.9492 75.3906 -71.4844 75.3906 -68.1152 L 75.3906 -36.9141 C 74.9512 -38.1836 74.0234 -39.1602 72.6074 -39.9902 L 21.9238 -69.8242 C 20.6055 -70.5566 19.1406 -71.2402 17.6758 -71.2402 C 14.9902 -71.2402 12.4512 -69.2383 12.4512 -64.9414 L 12.4512 -5.61523 C 12.4512 -1.31836 14.9902 0.683594 17.6758 0.683594 Z"/>
  </g>
  <g id="Ultralight-M" transform="matrix(1 0 0 1 506.977 1126)">
   <path d="M 17.1387 -0.0488281 C 18.457 -0.0488281 19.9219 -0.732422 20.9961 -1.31836 L 71.9727 -31.3477 C 72.998 -31.9336 73.7793 -32.7637 74.1699 -33.8379 L 74.1699 -2.49023 C 74.1699 0.585938 75.3906 1.85547 78.5156 1.85547 L 88.7207 1.85547 C 91.7969 1.85547 93.0176 0.585938 93.0176 -2.49023 L 93.0176 -68.0176 C 93.0176 -71.1426 91.7969 -72.3633 88.7207 -72.3633 L 78.5156 -72.3633 C 75.3906 -72.3633 74.1699 -71.1426 74.1699 -68.0176 L 74.1699 -36.8164 C 73.8281 -37.8418 73.0469 -38.623 71.9727 -39.2578 L 20.9961 -69.2383 C 19.873 -69.873 18.457 -70.5566 17.1387 -70.5566 C 14.7949 -70.5566 12.4512 -68.7988 12.4512 -64.8438 L 12.4512 -5.71289 C 12.4512 -1.75781 14.7949 -0.0488281 17.1387 -0.0488281 Z"/>
  </g>
  <g id="Black-S" transform="matrix(1 0 0 1 2880.08 696)">
   <path d="M 18.9941 -1.07422 C 21.2402 -1.07422 23.3887 -1.5625 25.4883 -2.7832 L 65.6738 -26.1719 C 68.75 -27.9297 71.2891 -30.1758 71.9727 -33.4473 L 71.9727 -7.71484 C 71.9727 -2.83203 74.2676 -0.390625 79.2969 -0.390625 L 89.5508 -0.390625 C 94.4336 -0.390625 96.875 -2.83203 96.875 -7.71484 L 96.875 -62.7441 C 96.875 -67.4316 94.4336 -70.0684 89.5508 -70.0684 L 79.2969 -70.0684 C 74.4141 -70.0684 71.9727 -67.627 71.9727 -62.7441 L 71.9727 -37.207 C 71.2891 -40.3809 68.8477 -42.3828 65.6738 -44.2383 L 25.4883 -67.627 C 23.3398 -68.8477 21.1914 -69.3359 18.8965 -69.3359 C 13.916 -69.3359 9.76562 -65.6738 9.76562 -59.2285 L 9.76562 -11.1816 C 9.76562 -4.78516 14.0137 -1.07422 18.9941 -1.07422 Z"/>
  </g>
  <g id="Heavy-S" transform="matrix(1 0 0 1 2585 696)">
   <path d="M 18.2129 -1.95312 C 20.3125 -1.95312 22.2656 -2.44141 24.2676 -3.56445 L 64.1113 -26.8555 C 67.041 -28.5645 69.2383 -30.6152 69.9219 -33.4961 L 69.9219 -8.05664 C 69.9219 -3.4668 72.1191 -1.17188 76.8066 -1.17188 L 86.7188 -1.17188 C 91.2598 -1.17188 93.6035 -3.4668 93.6035 -8.05664 L 93.6035 -62.4023 C 93.6035 -66.8945 91.2598 -69.2871 86.7188 -69.2871 L 76.8066 -69.2871 C 72.2168 -69.2871 69.9219 -66.9922 69.9219 -62.4023 L 69.9219 -37.1094 C 69.2871 -39.8926 67.0898 -41.8457 64.1113 -43.6035 L 24.2676 -66.8457 C 22.2168 -68.0176 20.2637 -68.5059 18.1152 -68.5059 C 13.5742 -68.5059 9.76562 -65.1367 9.76562 -59.1309 L 9.76562 -11.2793 C 9.76562 -5.37109 13.623 -1.95312 18.2129 -1.95312 Z"/>
  </g>
  <g id="Bold-S" transform="matrix(1 0 0 1 2290.15 696)">
   <path d="M 17.334 -2.88086 C 19.2871 -2.88086 20.9961 -3.36914 22.9004 -4.49219 L 62.4023 -27.5879 C 65.1367 -29.1992 66.9922 -31.1035 67.5781 -33.5938 L 67.5781 -8.39844 C 67.5781 -4.19922 69.6777 -2.00195 73.9746 -2.00195 L 83.5449 -2.00195 C 87.7441 -2.00195 89.8926 -4.19922 89.8926 -8.39844 L 89.8926 -62.0605 C 89.8926 -66.2598 87.7441 -68.457 83.5449 -68.457 L 73.9746 -68.457 C 69.7754 -68.457 67.5781 -66.2598 67.5781 -62.0605 L 67.5781 -37.0117 C 66.9922 -39.4043 65.1855 -41.2109 62.4023 -42.8711 L 22.9004 -65.9668 C 20.9961 -67.0898 19.2383 -67.5781 17.2852 -67.5781 C 13.1836 -67.5781 9.76562 -64.502 9.76562 -59.0332 L 9.76562 -11.4258 C 9.76562 -6.00586 13.2324 -2.88086 17.334 -2.88086 Z"/>
  </g>
  <g id="Semibold-S" transform="matrix(1 0 0 1 1994.71 696)">
   <path d="M 16.6992 -3.56445 C 18.5547 -3.56445 20.166 -4.05273 21.9727 -5.12695 L 61.2305 -28.125 C 63.8184 -29.6387 65.4297 -31.4453 65.9668 -33.6426 L 65.9668 -8.64258 C 65.9668 -4.6875 68.0176 -2.63672 72.0215 -2.63672 L 81.3477 -2.63672 C 85.3027 -2.63672 87.3535 -4.6875 87.3535 -8.64258 L 87.3535 -61.8164 C 87.3535 -65.8203 85.3027 -67.8223 81.3477 -67.8223 L 72.0215 -67.8223 C 68.0664 -67.8223 65.9668 -65.7715 65.9668 -61.8164 L 65.9668 -36.9141 C 65.4785 -39.0625 63.8184 -40.8203 61.2305 -42.334 L 21.9727 -65.3809 C 20.1172 -66.4551 18.5547 -66.9434 16.6992 -66.9434 C 12.8906 -66.9434 9.76562 -64.0625 9.76562 -58.9355 L 9.76562 -11.5234 C 9.76562 -6.39648 12.9395 -3.56445 16.6992 -3.56445 Z"/>
  </g>
  <g id="Medium-S" transform="matrix(1 0 0 1 1698.95 696)">
   <path d="M 16.2598 -4.05273 C 18.0176 -4.05273 19.4824 -4.54102 21.2891 -5.56641 L 60.3027 -28.5156 C 62.793 -29.9805 64.2578 -31.6895 64.7949 -33.6914 L 64.7949 -8.83789 C 64.7949 -5.07812 66.748 -3.07617 70.5566 -3.07617 L 79.6875 -3.07617 C 83.4473 -3.07617 85.4492 -5.07812 85.4492 -8.83789 L 85.4492 -61.6211 C 85.4492 -65.5273 83.4473 -67.3828 79.6875 -67.3828 L 70.5566 -67.3828 C 66.7969 -67.3828 64.7949 -65.3809 64.7949 -61.6211 L 64.7949 -36.8652 C 64.2578 -38.8184 62.793 -40.4785 60.3027 -41.9922 L 21.2891 -64.8926 C 19.4824 -65.9668 18.0176 -66.4551 16.2109 -66.4551 C 12.6953 -66.4551 9.76562 -63.7695 9.76562 -58.8867 L 9.76562 -11.6211 C 9.76562 -6.73828 12.6953 -4.05273 16.2598 -4.05273 Z"/>
  </g>
  <g id="Regular-S" transform="matrix(1 0 0 1 1403.48 696)">
   <path d="M 15.6738 -4.6875 C 17.334 -4.6875 18.6523 -5.17578 20.3613 -6.20117 L 59.1309 -29.0527 C 61.4746 -30.4199 62.7441 -31.9824 63.1836 -33.6914 L 63.1836 -9.13086 C 63.1836 -5.56641 65.0879 -3.66211 68.6523 -3.66211 L 77.4902 -3.66211 C 81.0547 -3.66211 82.959 -5.56641 82.959 -9.13086 L 82.959 -61.377 C 82.959 -65.0879 81.0547 -66.7969 77.4902 -66.7969 L 68.6523 -66.7969 C 65.0879 -66.7969 63.1836 -64.8926 63.1836 -61.377 L 63.1836 -36.8164 C 62.7441 -38.5254 61.4746 -40.0879 59.1309 -41.5039 L 20.3613 -64.3066 C 18.6523 -65.332 17.334 -65.8203 15.6738 -65.8203 C 12.4023 -65.8203 9.76562 -63.3301 9.76562 -58.8379 L 9.76562 -11.6699 C 9.76562 -7.17773 12.4023 -4.6875 15.6738 -4.6875 Z"/>
  </g>
  <g id="Light-S" transform="matrix(1 0 0 1 1108.36 696)">
   <path d="M 14.9414 -5.61523 C 16.4062 -5.61523 17.6758 -6.15234 19.1406 -6.98242 L 58.3008 -30.0293 C 60.1074 -31.1035 61.1816 -32.373 61.6211 -33.8379 L 61.6211 -9.27734 C 61.6211 -6.05469 63.2324 -4.44336 66.4062 -4.44336 L 75 -4.44336 C 78.2227 -4.44336 79.7852 -6.05469 79.7852 -9.27734 L 79.7852 -61.2305 C 79.7852 -64.5508 78.2227 -66.0156 75 -66.0156 L 66.4062 -66.0156 C 63.2324 -66.0156 61.6211 -64.4043 61.6211 -61.2305 L 61.6211 -36.7188 C 61.1816 -38.1348 60.1562 -39.4043 58.3008 -40.5273 L 19.1406 -63.5742 C 17.6758 -64.4043 16.4062 -64.8926 14.9414 -64.8926 C 12.1582 -64.8926 9.76562 -62.793 9.76562 -58.6914 L 9.76562 -11.8164 C 9.76562 -7.76367 12.1582 -5.61523 14.9414 -5.61523 Z"/>
  </g>
  <g id="Thin-S" transform="matrix(1 0 0 1 813.698 696)">
   <path d="M 14.0625 -6.83594 C 15.2344 -6.83594 16.4551 -7.37305 17.5293 -8.00781 L 57.1777 -31.2988 C 58.3496 -32.0312 59.1797 -32.9102 59.5215 -33.9844 L 59.5215 -9.42383 C 59.5215 -6.68945 60.7422 -5.46875 63.4766 -5.46875 L 71.7285 -5.46875 C 74.4629 -5.46875 75.6836 -6.68945 75.6836 -9.42383 L 75.6836 -61.0352 C 75.6836 -63.8184 74.4629 -64.9902 71.7285 -64.9902 L 63.4766 -64.9902 C 60.7422 -64.9902 59.5215 -63.7695 59.5215 -61.0352 L 59.5215 -36.5723 C 59.1797 -37.6465 58.3984 -38.4766 57.1777 -39.2578 L 17.5293 -62.5488 C 16.4062 -63.1836 15.2344 -63.7207 14.0625 -63.7207 C 11.8164 -63.7207 9.76562 -62.0605 9.76562 -58.5449 L 9.76562 -12.0117 C 9.76562 -8.49609 11.8164 -6.83594 14.0625 -6.83594 Z"/>
  </g>
  <g id="Ultralight-S" transform="matrix(1 0 0 1 518.061 696)">
   <path d="M 13.5742 -7.4707 C 14.6484 -7.4707 15.8203 -8.00781 16.6992 -8.54492 L 56.5918 -31.9824 C 57.4707 -32.5195 58.1543 -33.2031 58.4473 -34.082 L 58.4473 -9.57031 C 58.4473 -7.03125 59.4727 -6.00586 61.9629 -6.00586 L 70.0195 -6.00586 C 72.5098 -6.00586 73.5352 -7.03125 73.5352 -9.57031 L 73.5352 -60.9375 C 73.5352 -63.4766 72.5098 -64.4531 70.0195 -64.4531 L 61.9629 -64.4531 C 59.4727 -64.4531 58.4473 -63.4766 58.4473 -60.9375 L 58.4473 -36.5234 C 58.1543 -37.3535 57.5195 -38.0371 56.5918 -38.5742 L 16.6992 -62.0117 C 15.7715 -62.5488 14.6484 -63.0859 13.5742 -63.0859 C 11.6699 -63.0859 9.76562 -61.6699 9.76562 -58.4473 L 9.76562 -12.1094 C 9.76562 -8.88672 11.6699 -7.4707 13.5742 -7.4707 Z"/>
  </g>
 </g>
</svg>
